<svg xmlns="http://www.w3.org/2000/svg" width="1358" height="767" fill="none" viewBox="0 0 1358 767"><line x1="1339.88" x2="1339.88" y1="766.345" y2=".1" stroke="#727272" stroke-dasharray="6 6"/><line x1="1293.16" x2="1293.16" y1="766.345" y2=".1" stroke="#727272" stroke-dasharray="6 6"/><line x1="1246.44" x2="1246.44" y1="766.345" y2=".1" stroke="#727272" stroke-dasharray="6 6"/><line x1="1199.72" x2="1199.72" y1="766.345" y2=".1" stroke="#727272" stroke-dasharray="6 6"/><line x1="1153" x2="1153" y1="766.345" y2=".1" stroke="#727272" stroke-dasharray="6 6"/><line x1="1106.27" x2="1106.27" y1="766.345" y2=".1" stroke="#727272" stroke-dasharray="6 6"/><line x1="1059.55" x2="1059.55" y1="766.345" y2=".1" stroke="#727272" stroke-dasharray="6 6"/><line x1="1012.83" x2="1012.83" y1="766.345" y2=".1" stroke="#727272" stroke-dasharray="6 6"/><line x1="966.109" x2="966.109" y1="766.345" y2=".1" stroke="#727272" stroke-dasharray="6 6"/><line x1="919.385" x2="919.385" y1="766.345" y2=".1" stroke="#727272" stroke-dasharray="6 6"/><line x1="872.664" x2="872.664" y1="766.345" y2=".1" stroke="#727272" stroke-dasharray="6 6"/><line x1="825.944" x2="825.944" y1="766.345" y2=".1" stroke="#727272" stroke-dasharray="6 6"/><line x1="779.219" x2="779.219" y1="766.345" y2=".1" stroke="#727272" stroke-dasharray="6 6"/><line x1="732.492" x2="732.492" y1="766.345" y2=".1" stroke="#727272" stroke-dasharray="6 6"/><line x1="685.748" x2="685.748" y1="766.356" y2=".111" stroke="#727272" stroke-dasharray="6 6"/><line x1="639.027" x2="639.027" y1="766.356" y2=".111" stroke="#727272" stroke-dasharray="6 6"/><line x1="592.303" x2="592.303" y1="766.356" y2=".111" stroke="#727272" stroke-dasharray="6 6"/><line x1="545.582" x2="545.582" y1="766.356" y2=".111" stroke="#727272" stroke-dasharray="6 6"/><line x1="498.861" x2="498.861" y1="766.356" y2=".111" stroke="#727272" stroke-dasharray="6 6"/><line x1="452.137" x2="452.137" y1="766.356" y2=".111" stroke="#727272" stroke-dasharray="6 6"/><line x1="405.416" x2="405.416" y1="766.356" y2=".111" stroke="#727272" stroke-dasharray="6 6"/><line x1="358.689" x2="358.69" y1="766.356" y2=".112" stroke="#727272" stroke-dasharray="6 6"/><line x1="311.971" x2="311.971" y1="766.356" y2=".112" stroke="#727272" stroke-dasharray="6 6"/><line x1="265.254" x2="265.254" y1="766.356" y2=".111" stroke="#727272" stroke-dasharray="6 6"/><line x1="218.523" x2="218.524" y1="766.356" y2=".112" stroke="#727272" stroke-dasharray="6 6"/><line x1="171.799" x2="171.799" y1="766.356" y2=".111" stroke="#727272" stroke-dasharray="6 6"/><line x1="125.078" x2="125.078" y1="766.356" y2=".111" stroke="#727272" stroke-dasharray="6 6"/><line x1="78.357" x2="78.358" y1="766.356" y2=".112" stroke="#727272" stroke-dasharray="6 6"/><line x1="31.642" x2="31.642" y1="766.356" y2=".111" stroke="#727272" stroke-dasharray="6 6"/><line x1=".366" x2="1466.51" y1="733.151" y2="733.152" stroke="#727272" stroke-dasharray="6 6"/><line x1=".366" x2="1466.51" y1="686.429" y2="686.429" stroke="#727272" stroke-dasharray="6 6"/><line x1=".366" x2="1466.51" y1="639.706" y2="639.706" stroke="#727272" stroke-dasharray="6 6"/><line x1=".366" x2="1466.51" y1="592.983" y2="592.984" stroke="#727272" stroke-dasharray="6 6"/><line x1=".366" x2="1466.51" y1="546.261" y2="546.261" stroke="#727272" stroke-dasharray="6 6"/><line x1=".366" x2="1466.51" y1="499.54" y2="499.54" stroke="#727272" stroke-dasharray="6 6"/><line x1=".366" x2="1466.51" y1="452.815" y2="452.816" stroke="#727272" stroke-dasharray="6 6"/><line x1=".366" x2="1466.51" y1="406.093" y2="406.093" stroke="#727272" stroke-dasharray="6 6"/><line x1=".366" x2="1466.51" y1="359.372" y2="359.372" stroke="#727272" stroke-dasharray="6 6"/><line x1=".366" x2="1466.51" y1="312.649" y2="312.65" stroke="#727272" stroke-dasharray="6 6"/><line x1=".366" x2="1466.51" y1="265.927" y2="265.927" stroke="#727272" stroke-dasharray="6 6"/><line x1=".366" x2="1466.51" y1="219.206" y2="219.206" stroke="#727272" stroke-dasharray="6 6"/><line x1=".366" x2="1466.51" y1="172.483" y2="172.484" stroke="#727272" stroke-dasharray="6 6"/><line x1=".366" x2="1466.51" y1="125.761" y2="125.761" stroke="#727272" stroke-dasharray="6 6"/><line x1=".366" x2="1466.51" y1="79.038" y2="79.038" stroke="#727272" stroke-dasharray="6 6"/><line x1=".365" x2="1466.51" y1="32.317" y2="32.318" stroke="#727272" stroke-dasharray="6 6"/></svg>