<svg xmlns="http://www.w3.org/2000/svg" xmlns:xlink="http://www.w3.org/1999/xlink" id="Layer_1" width="100%" x="0" y="0" enable-background="new 0 0 768 720" version="1.1" viewBox="0 0 768 720" xml:space="preserve"><path fill="#000" stroke="none" d="M726.314087,377.852875 C724.980469,389.823395 723.643372,401.333008 722.343872,412.846924 C720.747375,426.993225 719.154480,441.140015 717.612793,455.292358 C716.483093,465.663483 715.053894,476.022705 714.482178,486.427032 C714.054626,494.206360 712.371948,499.949371 705.052856,504.845276 C693.958862,512.266296 684.203186,521.687744 673.877319,530.257385 C660.749756,541.152222 647.582336,551.999390 634.503784,562.952820 C623.461426,572.200867 612.580383,581.641785 601.521362,590.869690 C587.526306,602.547485 573.422668,614.095215 559.367188,625.700684 C544.946289,637.607910 530.517700,649.505798 516.111938,661.431274 C510.841888,665.794067 504.885162,666.310364 499.308807,662.563904 C459.033447,635.505676 418.769226,608.430786 378.526642,581.323792 C355.932983,566.104980 333.387085,550.815186 310.820099,535.556763 C306.026703,532.315674 301.700165,528.395142 296.393127,525.895203 C293.760406,524.655090 292.864410,522.434937 292.584717,519.446167 C291.150909,504.124512 289.397522,488.833099 287.837036,473.522888 C286.712158,462.486298 285.769318,451.431213 284.644928,440.394562 C283.470978,428.871887 282.161224,417.363037 280.939941,405.845093 C279.824158,395.322327 278.774170,384.792542 277.644592,374.271271 C276.795959,366.366608 275.642487,358.494873 275.622986,350.513885 C275.612030,346.033905 277.470093,342.972656 281.001923,340.072906 C288.952515,333.545258 296.604736,326.625061 304.057800,319.527985 C313.423523,310.609528 323.332764,302.371674 333.350983,294.209930 C342.356720,286.872986 350.807037,278.852753 359.474457,271.102722 C363.434845,267.561523 367.263977,263.871429 371.274902,260.389679 C373.867249,258.139343 374.589233,255.722412 372.190002,253.109848 C369.891449,250.606873 371.013153,248.346375 372.544434,246.402863 C376.995636,240.753387 382.845825,236.511337 388.190796,231.795578 C390.892059,229.412338 394.509430,230.215530 397.495026,232.217667 C399.193268,233.356506 400.569122,233.816147 402.345978,232.207520 C411.950714,223.512207 421.655121,214.927139 431.292236,206.267410 C444.013855,194.835968 456.696381,183.361023 469.414093,171.925262 C473.368774,168.369217 477.054230,164.549759 481.204987,161.168350 C489.332397,154.547333 492.769043,154.117966 501.159698,160.294968 C520.963928,174.874298 540.699951,189.546173 560.512817,204.113647 C563.753479,206.496353 564.465820,211.115250 568.618896,212.678085 C572.480896,214.131363 576.242126,215.860413 580.013245,217.545425 C588.436096,221.308975 596.847778,225.098297 605.234314,228.941742 C606.258301,229.411011 607.403687,230.084045 607.977844,230.989243 C611.349548,236.305420 616.850403,239.532928 620.724915,244.403427 C638.662537,266.952209 664.533936,279.753204 686.503174,297.357330 C699.837158,308.041931 713.981628,317.717346 727.806885,327.784424 C729.797119,329.233612 730.395996,331.022949 730.356567,333.357513 C730.145874,345.816040 728.020996,358.094391 726.845764,370.460327 C726.626160,372.771332 726.445557,375.078064 726.314087,377.852875 M481.542450,429.969940 C470.157501,439.198395 458.772583,448.426880 447.068390,457.914124 C455.543152,465.299805 464.729218,469.781860 472.694611,475.979614 C473.179993,476.357300 473.950073,476.553986 474.577881,476.533569 C478.591614,476.403351 481.339813,478.886749 484.346680,480.985779 C492.379181,486.593231 500.498932,492.075623 508.582214,497.610352 C510.634003,499.015198 512.727966,499.150208 514.455383,497.267365 C517.405090,494.052246 521.091003,491.784973 524.406006,489.049194 C541.563843,474.889618 558.508179,460.471893 575.587097,446.216217 C599.033081,426.645996 622.524780,407.130493 646.012207,387.609985 C667.704895,369.581177 689.318665,351.454773 711.212036,333.672791 C715.204224,330.430237 713.970825,329.269562 710.778198,326.946716 C695.459229,315.801086 680.214905,304.551056 665.060547,293.182861 C662.691406,291.405640 660.838989,291.641205 658.217529,292.416046 C652.529297,294.097351 650.712036,300.128937 645.890991,302.633453 C642.714722,304.283539 642.894592,305.600464 645.463867,308.132477 C647.123413,309.767853 648.891846,311.531525 650.447266,313.403320 C655.889587,319.952454 661.182556,326.710754 668.041016,331.935669 C669.503479,333.049805 669.288696,334.559174 669.062134,336.029694 C668.768127,337.937439 667.240295,338.190155 665.682739,338.286957 C662.026978,338.514313 658.370117,338.722076 654.714111,338.944824 C648.864014,339.301208 643.053162,338.769745 637.299133,337.852478 C632.357361,337.064728 629.878357,331.371002 624.537781,331.097870 C624.112244,331.076111 623.540649,330.194977 623.364136,329.613831 C622.130371,325.552002 619.005798,325.022949 615.435059,325.205444 C613.300354,325.314545 611.225830,324.831177 610.486938,322.650604 C609.647705,320.173523 608.507874,316.818542 611.047852,315.279755 C614.285522,313.318268 617.369934,310.170197 621.790710,311.015198 C622.320374,311.116455 623.036804,311.773956 623.148254,312.286346 C623.990479,316.160492 626.615173,318.074249 629.577759,320.642792 C635.189697,325.508453 640.957458,326.663544 647.759521,326.127838 C642.470398,324.011261 641.384399,318.239288 637.698242,314.978394 C633.789612,311.520782 630.913513,307.216003 626.208069,303.321503 C632.316467,300.808014 635.343018,295.221008 640.638062,292.718201 C644.206787,291.031433 644.158325,289.378387 642.763794,286.216370 C640.407776,280.874084 634.147766,279.519379 631.424805,274.399811 C630.656006,272.954346 630.168396,270.582001 628.340332,269.699341 C622.790466,267.019684 620.055115,261.684814 617.081543,256.949524 C612.312256,249.354507 604.362793,244.696075 599.802856,237.030243 C599.453308,236.442612 598.384583,236.098389 597.599854,235.982941 C590.728882,234.972107 585.047913,230.355026 578.098267,229.595367 C576.575745,229.428970 575.415649,228.612335 574.214661,227.587021 C571.573792,225.332550 568.678711,223.374405 565.151855,222.666718 C562.832642,222.201340 560.814270,223.069656 559.267090,224.565369 C558.403015,225.400681 557.881409,227.032394 558.894348,228.251450 C560.664673,230.381897 562.601929,232.373795 564.474060,234.419266 C568.048218,238.324326 573.071289,240.820175 575.016174,246.347885 C576.124512,249.497894 578.631653,249.671783 580.591797,246.766220 C583.294678,242.759644 587.599915,242.485718 590.563843,244.602203 C593.921021,246.999542 597.755859,249.546280 600.025146,253.052368 C605.066467,260.841187 612.013550,266.821014 618.095947,273.617615 C620.032837,275.781921 622.633789,278.471893 618.942810,281.068451 C614.618042,284.110901 610.914978,287.798859 607.044678,291.318298 C605.130981,293.058563 602.167480,292.581848 600.626404,295.497894 C595.808777,304.613678 587.752869,305.213318 580.820557,296.585144 C590.086792,291.745728 597.434021,284.476105 605.587219,277.941254 C603.348755,275.136322 600.828491,272.175110 598.533875,269.048309 C596.174866,265.833832 594.967407,261.521484 590.121460,260.838043 C589.750793,260.785767 589.419617,260.176483 589.142944,259.775757 C586.281921,255.631516 584.141846,255.548965 581.339722,259.490814 C578.785828,263.083527 574.541931,262.955963 572.058411,259.315643 C570.412903,256.903656 568.974243,254.098648 566.739502,252.389435 C560.860657,247.893112 555.900879,242.850143 552.177307,236.324722 C550.606445,233.571762 548.566101,230.537933 544.927002,229.194519 C541.911804,228.081451 541.865356,224.453476 544.755615,222.728760 C547.647644,221.002960 549.751282,218.385452 552.405762,216.525452 C556.281677,213.809479 555.130249,211.902557 552.199280,209.748505 C547.240662,206.104248 542.250854,202.502380 537.308044,198.836945 C523.150879,188.338440 509.000244,177.831055 494.874939,167.289780 C492.666351,165.641617 490.756622,164.755096 488.333527,167.137314 C484.302887,171.099976 480.071228,174.862274 475.852844,178.629013 C467.307983,186.259048 458.512299,193.623016 450.234070,201.530167 C446.498840,205.097977 443.755188,209.703918 440.907410,213.391129 C445.647308,214.318604 451.916168,213.702042 458.115143,212.809235 C462.500488,212.177628 465.648926,214.092056 466.157166,218.550674 C466.363922,220.364441 466.336395,222.213226 466.305115,224.044205 C466.224030,228.792404 468.878815,232.378510 471.570801,235.801071 C473.507263,238.263016 482.056702,239.343063 484.044922,237.464539 C489.423615,232.382690 495.823181,228.497955 500.888397,222.646988 C505.370636,226.994110 511.218903,229.370407 515.230408,234.200424 C513.987854,235.653442 512.709900,236.612045 511.758514,237.978119 C510.669312,239.542145 508.626312,241.046722 506.563080,239.865448 C502.170868,237.350723 498.954987,238.754715 496.261810,242.388290 C490.692749,249.901947 483.843964,253.112473 474.595245,249.412354 C473.003418,248.775497 470.524048,249.849686 469.562958,248.008530 C468.060455,245.130127 465.655884,245.310333 463.169769,245.333771 C460.401855,245.359863 457.856293,244.676071 457.828735,241.473557 C457.795135,237.571686 456.631378,233.971909 455.910614,230.235519 C454.580048,223.338028 454.758545,223.300003 447.453278,223.310806 C445.953735,223.313034 444.453125,223.324783 442.955170,223.385742 C441.932770,223.427353 440.425323,223.739807 440.554138,224.701767 C441.207397,229.580429 436.661438,232.870605 437.164764,237.948029 C437.868835,245.050659 434.325745,248.720520 427.195831,249.677505 C421.929688,250.384308 417.050537,251.984085 412.841034,255.128082 C407.068726,251.014496 401.373352,247.295212 396.073547,243.078735 C391.243530,239.236038 389.423431,243.560669 386.691833,245.864670 C383.347382,248.685562 386.076569,250.395294 387.770508,252.322723 C390.074310,254.944031 392.436737,257.516693 394.665344,260.200470 C397.729309,263.890167 398.137665,270.862305 395.194672,272.879120 C389.946472,276.475586 388.967041,282.562744 386.523010,287.660736 C385.083679,290.663025 383.909821,292.376801 380.571381,292.332184 C375.739288,292.267578 370.905609,292.334656 366.072723,292.314880 C363.139374,292.302887 360.462006,292.123138 360.213379,296.428955 C359.825165,303.151367 361.064819,306.984222 364.940277,307.514618 C369.389404,308.123474 373.665009,307.869171 378.130981,310.192200 C381.140533,311.757751 382.154541,312.790619 382.680359,315.813904 C383.646118,321.366669 382.043335,327.337524 386.010040,332.526276 C387.096466,333.947418 386.786713,336.950012 384.356384,339.498169 C381.145538,342.864685 376.973724,344.562408 373.690277,347.623169 C371.844177,349.344055 370.354462,352.213928 371.785980,353.001984 C375.676086,355.143524 374.559845,362.283417 380.773529,361.589661 C380.937531,361.571381 381.155396,361.578278 381.251984,361.479431 C384.533539,358.121582 389.499634,358.387695 393.131958,356.111420 C398.731323,352.602295 403.119049,355.248901 406.940948,359.629425 C408.644745,361.582306 410.534302,362.650208 412.529053,364.019745 C415.048676,365.749786 420.017944,364.369659 420.124603,369.074707 C420.229767,373.716583 421.716522,378.587708 418.045349,382.853973 C416.635223,384.492645 416.562469,388.222443 418.153046,388.726227 C421.755951,389.867401 423.225891,394.715851 427.831055,393.784363 C430.080994,393.329224 432.043457,395.021881 433.760651,396.063873 C436.618408,397.797974 435.622925,400.713196 434.242065,403.049866 C433.179260,404.848358 431.334778,407.554779 429.267731,405.416290 C426.355896,402.403809 422.757385,402.384460 419.321411,401.491547 C413.613525,400.008209 405.292328,389.399414 406.923096,383.852478 C409.109528,376.415405 408.777740,371.210144 400.173309,369.233612 C399.899292,369.170624 399.626923,368.826233 399.475159,368.547028 C397.626709,365.146637 395.302460,366.248413 392.772797,367.687744 C388.724182,369.991333 384.667816,372.306641 380.471893,374.319244 C375.626709,376.643250 372.373413,375.294281 369.740265,370.653381 C366.734131,365.354950 365.389008,359.073761 360.404083,354.907104 C359.805054,354.406403 359.814423,353.087952 359.685516,352.129181 C358.854584,345.949890 362.356079,342.345093 367.197906,339.511566 C371.576385,336.949127 376.006989,334.406006 373.731354,327.996490 C373.414581,327.104156 373.560547,326.001007 373.665100,325.013763 C374.080048,321.095032 371.979492,319.614716 368.429047,319.359650 C366.464081,319.218475 363.706055,320.151978 362.705505,318.535187 C360.607300,315.144745 357.561096,315.599854 354.478729,315.131744 C347.591339,314.085876 346.105896,310.452637 349.534515,304.390717 C351.499298,300.916931 350.989899,297.229187 349.719910,293.199127 C326.657623,309.916260 308.057678,330.746796 287.166229,349.063354 C288.332733,351.051666 289.238312,351.895355 290.385254,352.659546 C302.134735,360.487518 313.861237,368.350250 325.565704,376.245483 C351.470642,393.719635 377.352631,411.227814 403.271942,428.680573 C404.715637,429.652649 406.252380,431.784637 408.036713,430.715973 C416.116425,425.876984 424.450989,421.292999 431.159271,414.554657 C436.445770,409.244507 442.626617,405.160583 448.417084,400.537292 C451.812592,397.826202 455.728973,395.766357 458.749969,392.669525 C462.462830,388.863495 466.432465,385.399353 470.941956,382.649109 C473.171173,381.289490 475.385345,380.678772 477.402435,378.289948 C479.434387,375.883484 481.313995,372.005951 484.548462,371.234497 C491.709564,369.526520 494.798584,362.842560 500.447174,359.460693 C504.497559,357.035675 507.354401,352.402832 511.289032,350.975250 C516.562439,349.061859 519.888855,344.875702 523.685730,341.853119 C527.950745,338.457764 533.125488,336.164551 536.980896,331.882721 C539.510620,329.073212 540.244568,327.508026 538.594727,324.434570 C535.916443,319.445374 530.544434,316.715546 528.048584,311.553894 C526.258484,307.851746 523.730591,304.703369 520.060059,302.586731 C517.362061,301.030945 516.545227,298.637299 516.617676,295.509674 C516.764221,289.188080 517.353821,282.747498 515.951355,276.565826 C513.848755,267.298248 514.987549,257.995850 514.740540,248.709183 C514.696167,247.042267 514.629272,245.309189 516.525391,244.418945 C521.813293,241.936157 525.719849,237.735657 529.923889,233.857819 C532.831177,231.176117 536.016174,231.657852 538.733826,234.430542 C542.237793,238.005600 545.716858,241.886246 548.569824,245.727982 C554.646790,253.910965 562.010254,260.839172 568.394104,268.497101 C565.673889,273.891266 559.877197,275.867126 556.355408,280.228516 C561.246094,284.358490 563.449463,290.770264 569.221985,294.353790 C574.104370,297.384735 576.002075,303.503601 580.219299,307.453918 C581.747437,308.885406 581.398560,310.133392 579.639465,311.496765 C577.241455,313.355377 575.202209,315.571442 573.249451,318.028412 C571.128479,320.696960 566.653931,321.333923 563.971741,324.190247 C563.557861,324.630951 561.963257,324.349884 561.133972,323.949036 C556.662109,321.787628 556.278687,316.200531 560.313293,313.278015 C561.390442,312.497742 562.375183,311.579193 563.495178,310.870850 C566.316162,309.086792 566.303833,307.532410 563.984558,304.986267 C557.027100,297.348206 550.376648,289.430267 543.619202,281.610443 C541.920715,279.644958 541.589233,277.932922 544.278870,276.359833 C545.775757,275.484344 546.771057,274.016266 548.503845,273.169464 C552.556519,271.188995 553.328003,265.575378 549.771973,262.882843 C543.408691,258.064789 539.171875,251.089478 533.082336,246.867462 C524.956604,249.403229 524.760193,255.640305 525.318115,262.310059 C525.697083,266.839752 525.468811,271.154480 527.417175,275.775879 C529.289673,280.217316 528.069458,285.938446 528.328552,291.091217 C528.578735,296.066528 529.962524,300.386414 534.671692,303.216278 C536.045044,304.041534 537.452087,305.183960 538.623596,306.712433 C543.359741,312.891571 548.463196,318.806213 553.703918,324.570465 C555.177490,326.191162 556.008667,328.395721 555.062195,329.399872 C552.340210,332.287567 551.375305,337.421265 547.152893,338.105255 C541.634338,338.999207 539.014648,343.408569 535.127258,346.196198 C529.659363,350.117188 524.907288,355.055450 519.359131,358.840332 C513.368958,362.926788 508.038177,367.810211 502.131470,371.974304 C496.334137,376.061310 491.980042,382.152985 484.755157,384.286713 C483.192017,384.748352 482.196381,386.032867 481.198944,387.514557 C479.454346,390.106140 477.427856,392.970215 474.801422,394.412842 C468.718597,397.753937 463.311066,401.708832 458.136566,406.380920 C448.944153,414.680847 439.136536,422.306091 428.354065,428.558990 C424.104645,431.023254 420.274048,433.993256 418.071747,439.002441 C421.312439,441.141144 424.431763,443.317871 427.667023,445.305908 C432.003204,447.970490 435.985596,453.939789 441.581543,447.116302 C452.231293,446.480225 454.592743,434.036560 464.286560,432.287384 C463.744385,431.161377 463.667084,430.795959 463.445251,430.576935 C462.631897,429.773743 461.766113,429.023926 460.927948,428.245514 C454.969910,422.711884 453.936554,417.308685 458.779968,413.684906 C466.260712,408.087830 473.527100,402.257812 480.744537,396.335083 C483.143066,394.366852 484.993896,390.846191 487.481750,390.335510 C493.450073,389.110504 496.786194,384.205383 500.858215,381.049683 C507.061829,376.242035 513.363525,371.258209 519.583374,366.454620 C529.040039,359.151276 538.619141,351.915802 547.906677,344.422974 C553.028076,340.291168 558.850891,337.077820 563.697937,332.320129 C566.434082,329.634460 569.896423,326.444794 573.801758,324.343140 C577.098022,322.569183 580.446106,320.091492 583.055115,317.619049 C591.494873,309.621002 597.460815,310.424683 601.331360,321.201202 C601.600403,321.950043 601.831726,323.095551 602.372437,323.305756 C609.687012,326.148682 611.208740,333.644989 614.812561,339.296234 C616.004089,341.164734 617.594177,343.149017 618.362549,345.546600 C620.583679,352.477112 620.350830,359.545685 620.388184,366.648529 C620.407104,370.255280 618.355042,373.197327 617.661438,376.592773 C617.157715,379.058624 612.044983,379.471985 610.419067,377.173706 C606.727661,371.955597 600.234314,369.249725 597.752563,363.079163 C595.969421,358.645477 591.229492,357.148529 588.811646,353.456451 C586.835571,350.438995 580.733521,349.621155 578.930054,352.591888 C575.563354,358.137573 570.508606,361.290405 565.216858,364.737885 C561.226807,367.337372 557.657166,370.905548 553.531982,373.577942 C553.396301,373.665863 553.309814,373.826050 553.186768,373.937653 C549.080017,377.662781 545.617798,382.187561 539.982605,383.978882 C538.479431,384.456726 536.683533,385.405151 535.959290,386.672943 C534.012268,390.081024 530.774170,392.638367 528.014648,394.558380 C523.036072,398.022278 518.650696,402.580139 513.724792,405.390564 C505.502594,410.081604 500.348938,418.365051 491.599274,422.097290 C487.903748,423.673615 486.052094,428.022430 481.542450,429.969940 M361.099152,525.388367 C404.910950,555.252319 448.722778,585.116272 492.728699,615.112488 C494.757019,611.592896 494.643768,608.921021 494.644196,606.276428 C494.649323,573.297913 494.578186,540.319092 494.739960,507.341370 C494.760559,503.138336 493.222992,500.650574 489.862640,498.395203 C468.416870,484.001587 447.016815,469.537842 425.729828,454.910675 C417.546417,449.287598 410.166870,442.341187 401.567810,437.519348 C392.841949,432.626465 384.563110,427.215698 376.333710,421.599762 C349.571564,403.336517 322.703339,385.228485 295.833496,367.123810 C294.438171,366.183624 293.045990,364.768982 290.647705,365.228882 C291.929657,368.502838 291.242676,371.831848 291.662476,375.125580 C293.356384,388.415009 294.809692,401.735168 296.337646,415.045624 C297.562256,425.713043 298.794495,436.379730 299.971741,447.052429 C301.130951,457.561798 302.876892,468.065094 303.090912,478.596954 C303.209412,484.429596 305.332062,487.563049 309.794952,490.543793 C326.785339,501.891510 343.603912,513.496521 361.099152,525.388367 M542.556763,596.061829 C550.386902,589.632996 558.209412,583.194885 566.048523,576.777039 C589.804932,557.327881 613.523254,537.831787 637.341736,518.458862 C657.544983,502.026367 677.855103,485.725037 698.149109,469.404419 C701.174744,466.971161 702.682068,464.241486 702.804382,460.088501 C703.028259,452.489105 704.065430,444.906982 704.909546,437.333954 C706.431274,423.680420 708.071472,410.040131 709.641785,396.391968 C710.890320,385.540375 712.152771,374.690094 713.323486,363.829956 C714.022522,357.345673 714.556458,350.843567 715.189209,344.086456 C712.251587,344.495178 710.713562,345.986389 709.093811,347.375580 C704.184387,351.586090 699.291809,355.817841 694.313110,359.945343 C681.291260,370.740753 668.208191,381.462280 655.185242,392.256317 C642.276428,402.955811 629.408691,413.704834 616.527649,424.437775 C601.351501,437.083099 586.219482,449.781677 570.995056,462.368591 C558.233826,472.919067 545.484375,483.490326 532.501770,493.764313 C525.097534,499.623749 520.750183,505.845367 521.049866,516.317200 C521.893311,545.791687 521.331909,575.306091 521.388428,604.804565 C521.392395,606.847107 520.594849,609.170288 523.231873,611.438538 C529.430054,606.516296 535.722595,601.519104 542.556763,596.061829 M415.513672,594.959961 C426.514160,602.417297 437.497406,609.900208 448.519226,617.325806 C464.760529,628.268005 481.008881,639.199951 497.300842,650.066406 C501.369171,652.779968 503.438599,651.680603 503.607727,646.791565 C503.768372,642.148804 503.697876,637.533081 504.494049,632.893005 C505.025909,629.793396 505.414703,626.158447 501.547119,623.896973 C498.563660,628.778992 494.967407,627.910156 491.124512,625.186890 C485.567474,621.249023 479.999512,617.324707 474.376831,613.481506 C444.760590,593.238037 415.158813,572.973206 385.487396,552.810791 C358.967102,534.789673 332.361389,516.894226 305.799133,498.934753 C304.065491,497.762604 302.685577,495.946655 300.032654,495.928406 C298.764679,501.789368 300.852844,507.424774 300.931793,513.127197 C300.991364,517.430847 303.334229,519.567383 306.572693,521.685730 C313.525879,526.234192 320.215698,531.183044 327.119232,535.809998 C356.370056,555.414551 385.659637,574.961365 415.513672,594.959961 M526.188538,641.687561 C531.576782,637.012512 536.875549,632.229370 542.369507,627.682068 C560.766724,612.454834 579.286682,597.375610 597.658508,582.117981 C614.513794,568.119934 631.197021,553.914856 648.031799,539.891968 C665.101135,525.673767 682.017029,511.252899 699.495117,497.552307 C707.475769,491.296478 705.547363,482.201019 708.343628,474.485107 C708.383606,474.374817 707.895020,474.072968 707.662292,473.868622 C706.297546,473.736847 705.590393,474.744293 704.703430,475.471466 C686.252808,490.597748 667.832397,505.761230 649.325317,520.818115 C626.826721,539.122498 604.218018,557.291565 581.723389,575.600891 C562.696106,591.088074 543.797791,606.733704 524.770935,622.221436 C517.868896,627.839722 517.775574,627.723145 513.443970,620.153015 C513.392883,620.063721 513.141479,620.088928 512.072632,619.897949 C509.237762,630.246948 513.505981,640.187439 512.597412,651.020325 C518.567688,648.625488 521.469421,644.464539 526.188538,641.687561 M510.594757,394.089996 C514.699280,393.361450 516.846130,389.589844 519.216003,387.112183 C523.028870,383.126007 528.071960,381.200775 531.952942,377.280640 C538.182861,370.987976 546.720886,367.297821 553.029114,360.716583 C556.649170,356.939850 561.233887,353.984222 565.444092,350.899200 C569.385925,348.010834 573.599792,345.147400 576.982239,341.843933 C583.438843,335.538147 587.370911,334.996246 592.713684,341.692657 C593.191956,342.292114 594.065491,342.573395 594.749084,343.012390 C597.730225,344.926880 599.761292,347.675323 601.077637,350.866730 C602.600647,354.559052 605.350403,356.605133 608.833679,358.053345 C609.997681,356.135956 610.140503,354.084106 609.356262,352.900208 C606.439758,348.497345 605.546387,342.978912 601.682556,339.151184 C600.684265,338.162231 600.138977,336.975311 599.862122,335.671753 C598.992615,331.577789 595.011047,329.730591 593.130493,326.319794 C592.492371,325.162384 590.579712,324.958923 589.027710,325.830292 C585.312744,327.916077 580.924988,330.723572 579.179810,333.510956 C576.205994,338.260681 569.768188,337.934021 567.984863,343.177948 C558.065796,346.634247 552.474854,355.851868 543.912170,361.283936 C536.979309,365.682098 530.752441,371.424530 524.321899,376.690674 C521.830933,378.730499 520.059998,382.346741 516.318787,382.771515 C510.583466,383.422668 507.481628,388.432434 504.176453,391.735596 C500.345612,395.564178 495.159149,397.274261 491.692566,401.507996 C490.477722,402.991699 489.140717,405.312408 486.759186,406.029144 C479.307159,408.272064 477.371521,417.315918 469.254456,418.782867 C471.611847,422.600769 474.199280,422.289246 476.325897,420.948792 C479.651520,418.852539 482.643921,416.224518 485.759003,413.798035 C493.914703,407.445068 501.095215,399.878296 510.594757,394.089996 M420.192383,228.695435 C416.854706,231.866302 413.517059,235.037186 409.562408,238.794205 C412.442078,239.272675 412.391541,244.274475 415.533783,242.006302 C418.508240,239.859207 421.986938,239.707901 424.988342,238.027573 C426.574493,237.139557 427.949463,236.470688 427.678375,234.479584 C427.295990,231.670700 428.680817,229.510101 430.321472,227.459000 C429.122803,225.824570 428.102325,224.433090 426.971832,222.891632 C424.740204,224.863403 422.771667,226.602722 420.192383,228.695435 M378.413055,266.160278 C373.861938,270.457764 369.310852,274.755249 364.322754,279.465363 C367.629364,281.028046 370.133667,280.650604 372.549957,280.663422 C378.899811,280.697052 383.968872,273.748047 382.283600,267.549774 C381.752747,265.597290 381.074951,264.452576 378.413055,266.160278 z" opacity="1"/><path fill="#000" stroke="none" d="M477.600342,340.760193 C475.582458,345.124908 470.806671,345.327209 467.897491,346.181335 C461.013977,348.202271 453.784912,352.800873 446.510010,349.943695 C439.715820,347.275299 432.583801,345.478027 426.300507,340.665161 C422.370422,337.654816 420.033783,332.946747 415.281464,330.981384 C412.887451,329.991272 413.868378,327.130768 412.949158,325.217560 C410.256592,319.613464 407.269806,313.779480 408.849335,307.376617 C410.667145,300.007935 411.967590,292.652130 417.737152,286.418732 C422.083160,281.723358 427.471283,278.748993 432.092285,274.659698 C435.460327,271.679230 441.040680,273.091919 445.507233,271.852448 C444.986176,268.687988 448.090149,267.961395 454.797821,269.746765 C455.370209,271.354370 453.495483,270.819183 452.898102,272.190491 C464.061005,272.518219 474.857025,273.063324 482.201996,283.451447 C488.539551,292.414795 494.046539,300.875854 493.238159,312.913696 C492.419708,325.101166 485.602173,332.775787 477.600342,340.760193 M441.042297,337.738098 C444.362488,337.961578 447.686401,338.140320 451.002167,338.417053 C460.587738,339.216980 468.243958,335.830566 474.845795,328.764709 C479.162323,324.144745 480.527008,319.006805 481.009674,313.063721 C481.723175,304.277924 481.117218,296.175659 473.588287,290.035187 C469.346802,286.575897 465.240723,282.455017 459.847260,281.565277 C448.863617,279.753296 438.305847,280.436920 429.832825,289.476593 C424.955841,294.679779 420.470520,300.304108 420.648865,307.371002 C420.815643,313.979492 419.726105,321.803925 427.237396,326.192200 C427.724487,326.476807 427.844818,327.329559 428.247894,327.827118 C431.566315,331.923401 434.960907,335.937836 441.042297,337.738098 z" opacity="1"/></svg>