<svg version="1.1" id="Layer_1" xmlns="http://www.w3.org/2000/svg" xmlns:xlink="http://www.w3.org/1999/xlink" x="0px" y="0px"
	 width="100%" viewBox="0 0 225 225" enable-background="new 0 0 225 225" xml:space="preserve">
<path fill="#010101" opacity="1.000000" stroke="none" 
	d="
M51.000000,226.000000 
	C46.643101,226.000000 42.286201,226.000000 37.332195,225.650070 
	C18.573334,220.779251 6.823784,209.692413 2.024469,191.456009 
	C1.882894,190.918060 1.350284,190.483032 0.999998,190.000000 
	C1.000000,184.977905 1.000000,179.955811 1.350384,174.335159 
	C6.486550,151.319443 26.510637,137.174820 45.378826,137.867874 
	C46.972908,137.926407 48.937565,136.463226 50.218605,135.191711 
	C69.230347,116.321014 88.093399,97.300056 107.172585,78.498276 
	C109.845871,75.863861 110.542595,73.544907 109.871025,69.904137 
	C104.433899,40.427784 122.077354,11.913568 150.762695,3.468223 
	C153.512360,2.658688 156.254410,1.823356 159.000000,0.999999 
	C164.022095,1.000000 169.044189,1.000000 174.675125,1.373106 
	C178.349228,2.406015 181.470917,2.875111 184.469040,3.761898 
	C192.966675,6.275333 194.376541,11.708114 188.186951,17.958860 
	C179.762833,26.466221 171.367584,35.006836 162.746429,43.311523 
	C160.250412,45.715923 160.378983,47.993179 160.427155,51.177158 
	C160.588394,61.837193 165.914124,66.439568 176.097198,66.432396 
	C176.254929,66.432289 176.434692,66.609123 176.567230,66.571892 
	C178.756042,65.957138 181.558838,65.973427 183.021500,64.583160 
	C191.817123,56.222935 200.287201,47.521000 208.901596,38.969044 
	C215.383881,32.533768 220.665741,33.951691 223.398514,42.797630 
	C224.245117,45.538101 225.131714,48.266224 226.000000,51.000000 
	C226.000000,56.688042 226.000000,62.376083 225.639191,68.656921 
	C219.253098,102.282494 188.438675,123.976257 154.371643,116.921852 
	C153.033905,116.644836 150.961273,117.603271 149.897827,118.658195 
	C130.294052,138.104691 110.759575,157.621628 91.340988,177.252808 
	C90.034508,178.573578 89.164764,180.903915 89.111740,182.793320 
	C88.767372,195.064560 83.902534,205.182785 75.304077,213.753555 
	C68.517654,220.518127 59.968689,223.641113 51.000000,226.000000 
M31.126825,187.055267 
	C34.950230,194.310974 41.086815,197.907516 47.372753,196.576675 
	C55.670349,194.819962 61.206913,187.039780 59.575665,179.428726 
	C57.818352,171.229492 49.928047,165.733246 42.280857,167.381516 
	C33.610317,169.250366 28.802748,177.285553 31.126825,187.055267 
z"/>
<path fill="#FEFEFE" opacity="1.000000" stroke="none" 
	d="
M51.468658,226.000000 
	C59.968689,223.641113 68.517654,220.518127 75.304077,213.753555 
	C83.902534,205.182785 88.767372,195.064560 89.111740,182.793320 
	C89.164764,180.903915 90.034508,178.573578 91.340988,177.252808 
	C110.759575,157.621628 130.294052,138.104691 149.897827,118.658195 
	C150.961273,117.603271 153.033905,116.644836 154.371643,116.921852 
	C188.438675,123.976257 219.253098,102.282494 225.639191,69.124863 
	C226.000000,111.020897 226.000000,153.041794 225.723801,195.326141 
	C217.266922,181.739716 209.210327,167.814636 200.874741,154.058609 
	C190.025452,136.154282 195.073776,139.220642 174.750549,139.038086 
	C171.576065,139.009567 169.138321,138.422791 166.859222,135.949387 
	C162.404205,131.114548 158.119904,131.289749 153.415283,135.983002 
	C146.457581,142.923935 139.495346,149.860321 132.548660,156.812271 
	C131.438858,157.922913 130.400116,159.104584 128.790176,160.830551 
	C138.983887,165.976303 140.107330,174.514969 138.989670,183.944687 
	C138.950729,184.273285 139.017288,184.614212 138.979858,184.943161 
	C138.425140,189.818329 140.509537,192.964417 144.763184,195.454453 
	C161.922333,205.499283 178.933914,215.796188 196.000000,226.000000 
	C147.979111,226.000000 99.958214,226.000000 51.468658,226.000000 
z"/>
<path fill="#FDFDFD" opacity="1.000000" stroke="none" 
	d="
M158.531342,0.999999 
	C156.254410,1.823356 153.512360,2.658688 150.762695,3.468223 
	C122.077354,11.913568 104.433899,40.427784 109.871025,69.904137 
	C110.542595,73.544907 109.845871,75.863861 107.172585,78.498276 
	C88.093399,97.300056 69.230347,116.321014 50.218605,135.191711 
	C48.937565,136.463226 46.972908,137.926407 45.378826,137.867874 
	C26.510637,137.174820 6.486550,151.319443 1.350384,173.868301 
	C1.000000,131.979111 1.000000,89.958214 1.104686,47.819889 
	C3.100344,51.323833 4.270146,55.647575 7.000722,58.451225 
	C23.265497,75.151299 39.890858,91.500175 56.379791,107.951660 
	C63.230053,101.077003 70.033134,94.249695 77.036308,87.221588 
	C73.905319,84.171280 70.654419,81.067192 67.473030,77.893425 
	C56.034599,66.482384 44.585545,55.081589 33.212654,43.605427 
	C28.692202,39.043930 29.473484,33.388924 34.747486,30.914408 
	C38.638481,29.088791 41.396919,30.935781 44.019127,33.564629 
	C58.480320,48.062450 72.963432,62.538414 88.121391,77.704597 
	C90.300194,74.200981 93.469833,71.185524 94.042747,67.738472 
	C95.148941,61.082771 94.989250,54.181480 94.920853,47.386364 
	C94.899223,45.237652 94.076065,42.543758 92.634171,41.051937 
	C82.912376,30.993549 72.818573,21.295240 63.071522,11.260530 
	C58.466812,6.519923 53.539898,2.572071 47.000000,1.000000 
	C84.020897,1.000000 121.041786,1.000000 158.531342,0.999999 
z"/>
<path fill="#010101" opacity="1.000000" stroke="none" 
	d="
M196.399994,226.000000 
	C178.933914,215.796188 161.922333,205.499283 144.763184,195.454453 
	C140.509537,192.964417 138.425140,189.818329 138.979858,184.943161 
	C139.017288,184.614212 138.950729,184.273285 138.989670,183.944687 
	C140.107330,174.514969 138.983887,165.976303 128.790176,160.830551 
	C130.400116,159.104584 131.438858,157.922913 132.548660,156.812271 
	C139.495346,149.860321 146.457581,142.923935 153.415283,135.983002 
	C158.119904,131.289749 162.404205,131.114548 166.859222,135.949387 
	C169.138321,138.422791 171.576065,139.009567 174.750549,139.038086 
	C195.073776,139.220642 190.025452,136.154282 200.874741,154.058609 
	C209.210327,167.814636 217.266922,181.739716 225.723801,195.794800 
	C226.000000,197.066666 226.000000,198.133347 225.701996,199.762421 
	C216.935989,208.883209 208.467987,217.441605 200.000000,226.000000 
	C198.933334,226.000000 197.866653,226.000000 196.399994,226.000000 
z"/>
<path fill="#010101" opacity="1.000000" stroke="none" 
	d="
M46.562500,1.000000 
	C53.539898,2.572071 58.466812,6.519923 63.071522,11.260530 
	C72.818573,21.295240 82.912376,30.993549 92.634171,41.051937 
	C94.076065,42.543758 94.899223,45.237652 94.920853,47.386364 
	C94.989250,54.181480 95.148941,61.082771 94.042747,67.738472 
	C93.469833,71.185524 90.300194,74.200981 88.121391,77.704597 
	C72.963432,62.538414 58.480320,48.062450 44.019127,33.564629 
	C41.396919,30.935781 38.638481,29.088791 34.747486,30.914408 
	C29.473484,33.388924 28.692202,39.043930 33.212654,43.605427 
	C44.585545,55.081589 56.034599,66.482384 67.473030,77.893425 
	C70.654419,81.067192 73.905319,84.171280 77.036308,87.221588 
	C70.033134,94.249695 63.230053,101.077003 56.379791,107.951660 
	C39.890858,91.500175 23.265497,75.151299 7.000722,58.451225 
	C4.270146,55.647575 3.100344,51.323833 1.104686,47.351231 
	C1.000000,44.958332 1.000000,42.916668 1.286251,40.214043 
	C3.867806,35.454060 5.619489,30.899380 8.584626,27.361795 
	C13.139785,21.927221 18.652370,17.307848 23.528679,12.126107 
	C28.212671,7.148728 33.251564,2.849616 40.000000,1.000000 
	C42.041668,1.000000 44.083332,1.000000 46.562500,1.000000 
z"/>
<path fill="#FEFEFE" opacity="1.000000" stroke="none" 
	d="
M226.000000,50.531342 
	C225.131714,48.266224 224.245117,45.538101 223.398514,42.797630 
	C220.665741,33.951691 215.383881,32.533768 208.901596,38.969044 
	C200.287201,47.521000 191.817123,56.222935 183.021500,64.583160 
	C181.558838,65.973427 178.756042,65.957138 176.567230,66.571892 
	C176.434692,66.609123 176.254929,66.432289 176.097198,66.432396 
	C165.914124,66.439568 160.588394,61.837193 160.427155,51.177158 
	C160.378983,47.993179 160.250412,45.715923 162.746429,43.311523 
	C171.367584,35.006836 179.762833,26.466221 188.186951,17.958860 
	C194.376541,11.708114 192.966675,6.275333 184.469040,3.761898 
	C181.470917,2.875111 178.349228,2.406015 175.141983,1.373106 
	C191.926025,1.000000 208.852051,1.000000 226.000000,1.000000 
	C226.000000,17.353559 226.000000,33.708122 226.000000,50.531342 
z"/>
<path fill="#FDFDFD" opacity="1.000000" stroke="none" 
	d="
M39.531342,1.000000 
	C33.251564,2.849616 28.212671,7.148728 23.528679,12.126107 
	C18.652370,17.307848 13.139785,21.927221 8.584626,27.361795 
	C5.619489,30.899380 3.867806,35.454060 1.286251,39.776543 
	C1.000000,27.073353 1.000000,14.146708 1.000000,1.000000 
	C13.686713,1.000000 26.374699,1.000000 39.531342,1.000000 
z"/>
<path fill="#FBFBFB" opacity="1.000000" stroke="none" 
	d="
M0.999998,190.468658 
	C1.350284,190.483032 1.882894,190.918060 2.024469,191.456009 
	C6.823784,209.692413 18.573334,220.779251 36.867546,225.650070 
	C25.073397,226.000000 13.146791,226.000000 1.000000,226.000000 
	C1.000000,214.313354 1.000000,202.625336 0.999998,190.468658 
z"/>
<path fill="#F9F9F9" opacity="1.000000" stroke="none" 
	d="
M200.468658,226.000000 
	C208.467987,217.441605 216.935989,208.883209 225.701996,200.162415 
	C226.000000,208.593063 226.000000,217.186142 226.000000,226.000000 
	C217.647064,226.000000 209.292206,226.000000 200.468658,226.000000 
z"/>
<path fill="#FAFAFA" opacity="1.000000" stroke="none" 
	d="
M31.047447,186.672272 
	C28.802748,177.285553 33.610317,169.250366 42.280857,167.381516 
	C49.928047,165.733246 57.818352,171.229492 59.575665,179.428726 
	C61.206913,187.039780 55.670349,194.819962 47.372753,196.576675 
	C41.086815,197.907516 34.950230,194.310974 31.047447,186.672272 
z"/>
</svg>