<svg xmlns="http://www.w3.org/2000/svg" xmlns:xlink="http://www.w3.org/1999/xlink" id="Layer_1" width="100%" x="0" y="0" enable-background="new 0 0 225 225" version="1.1" viewBox="0 0 225 225" xml:space="preserve"><path fill="#020202" stroke="none" d="M226.000000,105.000000 C226.000000,110.688042 226.000000,116.376083 225.583038,122.545410 C220.913040,123.735947 216.679108,124.876312 212.403061,125.065674 C203.202820,125.473122 196.676773,128.484772 196.455185,138.990097 C196.441650,139.631958 196.236664,140.340317 195.909836,140.892975 C194.395874,143.453079 195.449265,144.987701 197.572281,146.681152 C203.631912,151.514694 209.501099,156.586975 215.480362,161.594772 C214.291519,163.676422 213.434097,165.272812 212.488144,166.814896 C210.341232,170.314789 208.828918,175.632645 205.786499,176.751144 C202.768051,177.860825 197.796768,175.388565 194.372208,173.335754 C184.507904,167.422684 176.922089,169.662979 170.894150,178.841324 C170.015289,180.179489 169.395020,182.364471 169.843597,183.781357 C171.889496,190.243729 174.488373,196.530350 176.565521,202.984100 C176.967056,204.231644 176.416641,206.678101 175.464325,207.316040 C171.085098,210.249603 166.407761,212.738098 161.581833,215.534332 C156.490814,209.449249 151.464844,203.691696 146.754181,197.686798 C144.904846,195.329391 143.314728,194.830948 140.508255,195.923157 C137.131622,197.237244 133.452347,197.754562 130.002197,198.909790 C128.873230,199.287827 127.387794,200.455490 127.193329,201.476791 C125.642441,209.622040 124.362801,217.818939 123.000000,226.000000 C116.978844,226.000000 110.957695,226.000000 104.454956,225.583084 C103.264351,220.914993 102.179810,216.686279 101.924110,212.408005 C101.383698,203.365646 98.652908,196.582687 88.029190,196.461212 C87.390739,196.453918 86.686523,196.226151 86.131691,195.899323 C83.580093,194.396240 82.036118,195.413559 80.337128,197.549728 C75.512337,203.616013 70.443657,209.488312 65.446297,215.466522 C63.358677,214.305283 61.764736,213.448257 60.198795,212.542816 C49.230015,206.200562 48.331963,205.762756 53.811104,194.417908 C58.758904,184.173172 57.413357,176.899719 48.184372,170.874084 C46.841682,169.997437 44.655128,169.389633 43.230484,169.837891 C36.770012,171.870636 30.483860,174.455246 24.032047,176.519562 C22.771626,176.922836 20.311520,176.396713 19.675098,175.447510 C16.742550,171.073746 14.259627,166.398529 11.470695,161.581345 C17.422647,156.594315 22.990547,151.594070 28.937078,147.094162 C31.725426,144.984161 32.119678,143.104660 30.955593,140.037262 C29.727518,136.801224 29.201237,133.303802 28.071445,130.022812 C27.682377,128.892929 26.526457,127.408287 25.505182,127.212883 C17.366068,125.655563 9.175080,124.369347 1.000000,123.000000 C1.000000,116.978844 1.000000,110.957695 1.414140,104.455124 C6.408358,103.208557 10.975419,101.902725 15.571253,101.792084 C24.826681,101.569260 30.197260,97.730568 30.524313,88.057968 C30.546045,87.415207 30.757908,86.717323 31.077324,86.156754 C32.515694,83.632462 31.624891,82.110321 29.437132,80.380470 C23.354866,75.571228 17.514681,70.455833 11.532701,65.422516 C12.680025,63.368320 13.535851,61.775398 14.446857,60.214687 C20.846519,49.250931 21.279100,48.363552 32.596943,53.821392 C42.832081,58.757118 50.112873,57.403561 56.130474,48.179283 C57.007469,46.834953 57.599995,44.637093 57.146667,43.207592 C55.099213,36.751244 52.498936,30.470850 50.422199,24.022596 C50.020332,22.774815 50.576397,20.325766 51.531158,19.686733 C55.911983,16.754601 60.591270,14.268391 65.401512,11.484317 C70.598595,17.682453 75.528671,23.731318 80.695389,29.570807 C81.644501,30.643499 83.686783,31.588301 84.995415,31.347466 C89.054329,30.600485 93.042923,29.373869 96.969086,28.064398 C98.099007,27.687544 99.591209,26.528461 99.785843,25.511475 C101.343925,17.370333 102.630386,9.177209 104.000000,1.000000 C110.021156,1.000000 116.042305,1.000000 122.542252,1.416965 C123.809563,6.576322 125.103256,11.300284 125.277084,16.065104 C125.597992,24.861095 129.038010,30.187706 138.470169,30.309029 C139.260529,30.319193 140.112564,30.673601 140.819870,31.073420 C143.345520,32.501102 144.898727,31.628645 146.624359,29.452042 C151.440475,23.377357 156.534531,17.523056 161.553482,11.540497 C163.622009,12.696897 165.210388,13.560004 166.775314,14.463717 C177.755142,20.804354 178.639862,21.234905 173.170868,32.562824 C168.227798,42.801380 169.613785,50.071842 178.825592,56.089146 C180.169785,56.967186 182.348053,57.610077 183.760834,57.162846 C190.216217,55.119324 196.495621,52.522484 202.940308,50.440338 C204.186646,50.037666 206.625626,50.551647 207.255264,51.488785 C210.192596,55.860695 212.688339,60.529282 215.519180,65.396454 C209.361465,70.548660 203.337631,75.484154 197.467819,80.596527 C196.409012,81.518700 195.158234,83.355980 195.406982,84.449966 C196.567078,89.552063 198.222153,94.541611 199.549744,99.059303 C208.657974,101.105003 217.328979,103.052505 226.000000,105.000000 M150.374969,58.035786 C133.862640,47.476318 116.108536,44.354343 97.008980,49.018887 C63.071220,57.307251 41.657825,91.247147 48.120090,126.577248 C54.183548,159.727020 87.489151,184.007889 121.110870,179.789871 C149.382462,176.243057 171.453857,156.406754 178.438416,128.267654 C184.863739,102.381546 173.820251,74.333000 150.374969,58.035786 z" opacity="1"/><path fill="#FEFEFE" stroke="none" d="M226.000000,104.531342 C217.328979,103.052505 208.657974,101.105003 199.549744,99.059303 C198.222153,94.541611 196.567078,89.552063 195.406982,84.449966 C195.158234,83.355980 196.409012,81.518700 197.467819,80.596527 C203.337631,75.484154 209.361465,70.548660 215.519180,65.396454 C212.688339,60.529282 210.192596,55.860695 207.255264,51.488785 C206.625626,50.551647 204.186646,50.037666 202.940308,50.440338 C196.495621,52.522484 190.216217,55.119324 183.760834,57.162846 C182.348053,57.610077 180.169785,56.967186 178.825592,56.089146 C169.613785,50.071842 168.227798,42.801380 173.170868,32.562824 C178.639862,21.234905 177.755142,20.804354 166.775314,14.463717 C165.210388,13.560004 163.622009,12.696897 161.553482,11.540497 C156.534531,17.523056 151.440475,23.377357 146.624359,29.452042 C144.898727,31.628645 143.345520,32.501102 140.819870,31.073420 C140.112564,30.673601 139.260529,30.319193 138.470169,30.309029 C129.038010,30.187706 125.597992,24.861095 125.277084,16.065104 C125.103256,11.300284 123.809563,6.576322 123.010513,1.416965 C157.260620,1.000000 191.521255,1.000000 226.000000,1.000000 C226.000000,35.353920 226.000000,69.708298 226.000000,104.531342 z" opacity="1"/><path fill="#FDFDFD" stroke="none" d="M123.468658,226.000000 C124.362801,217.818939 125.642441,209.622040 127.193329,201.476791 C127.387794,200.455490 128.873230,199.287827 130.002197,198.909790 C133.452347,197.754562 137.131622,197.237244 140.508255,195.923157 C143.314728,194.830948 144.904846,195.329391 146.754181,197.686798 C151.464844,203.691696 156.490814,209.449249 161.581833,215.534332 C166.407761,212.738098 171.085098,210.249603 175.464325,207.316040 C176.416641,206.678101 176.967056,204.231644 176.565521,202.984100 C174.488373,196.530350 171.889496,190.243729 169.843597,183.781357 C169.395020,182.364471 170.015289,180.179489 170.894150,178.841324 C176.922089,169.662979 184.507904,167.422684 194.372208,173.335754 C197.796768,175.388565 202.768051,177.860825 205.786499,176.751144 C208.828918,175.632645 210.341232,170.314789 212.488144,166.814896 C213.434097,165.272812 214.291519,163.676422 215.480362,161.594772 C209.501099,156.586975 203.631912,151.514694 197.572281,146.681152 C195.449265,144.987701 194.395874,143.453079 195.909836,140.892975 C196.236664,140.340317 196.441650,139.631958 196.455185,138.990097 C196.676773,128.484772 203.202820,125.473122 212.403061,125.065674 C216.679108,124.876312 220.913040,123.735947 225.583038,123.013344 C226.000000,157.260269 226.000000,191.520538 226.000000,226.000000 C191.979416,226.000000 157.958374,226.000000 123.468658,226.000000 z" opacity="1"/><path fill="#FDFDFD" stroke="none" d="M1.000000,123.468658 C9.175080,124.369347 17.366068,125.655563 25.505182,127.212883 C26.526457,127.408287 27.682377,128.892929 28.071445,130.022812 C29.201237,133.303802 29.727518,136.801224 30.955593,140.037262 C32.119678,143.104660 31.725426,144.984161 28.937078,147.094162 C22.990547,151.594070 17.422647,156.594315 11.470695,161.581345 C14.259627,166.398529 16.742550,171.073746 19.675098,175.447510 C20.311520,176.396713 22.771626,176.922836 24.032047,176.519562 C30.483860,174.455246 36.770012,171.870636 43.230484,169.837891 C44.655128,169.389633 46.841682,169.997437 48.184372,170.874084 C57.413357,176.899719 58.758904,184.173172 53.811104,194.417908 C48.331963,205.762756 49.230015,206.200562 60.198795,212.542816 C61.764736,213.448257 63.358677,214.305283 65.446297,215.466522 C70.443657,209.488312 75.512337,203.616013 80.337128,197.549728 C82.036118,195.413559 83.580093,194.396240 86.131691,195.899323 C86.686523,196.226151 87.390739,196.453918 88.029190,196.461212 C98.652908,196.582687 101.383698,203.365646 101.924110,212.408005 C102.179810,216.686279 103.264351,220.914993 103.986679,225.583084 C69.739723,226.000000 35.479446,226.000000 1.000000,226.000000 C1.000000,191.979416 1.000000,157.958374 1.000000,123.468658 z" opacity="1"/><path fill="#FEFEFE" stroke="none" d="M103.531342,1.000000 C102.630386,9.177209 101.343925,17.370333 99.785843,25.511475 C99.591209,26.528461 98.099007,27.687544 96.969086,28.064398 C93.042923,29.373869 89.054329,30.600485 84.995415,31.347466 C83.686783,31.588301 81.644501,30.643499 80.695389,29.570807 C75.528671,23.731318 70.598595,17.682453 65.401512,11.484317 C60.591270,14.268391 55.911983,16.754601 51.531158,19.686733 C50.576397,20.325766 50.020332,22.774815 50.422199,24.022596 C52.498936,30.470850 55.099213,36.751244 57.146667,43.207592 C57.599995,44.637093 57.007469,46.834953 56.130474,48.179283 C50.112873,57.403561 42.832081,58.757118 32.596943,53.821392 C21.279100,48.363552 20.846519,49.250931 14.446857,60.214687 C13.535851,61.775398 12.680025,63.368320 11.532701,65.422516 C17.514681,70.455833 23.354866,75.571228 29.437132,80.380470 C31.624891,82.110321 32.515694,83.632462 31.077324,86.156754 C30.757908,86.717323 30.546045,87.415207 30.524313,88.057968 C30.197260,97.730568 24.826681,101.569260 15.571253,101.792084 C10.975419,101.902725 6.408358,103.208557 1.414140,103.986847 C1.000000,69.739723 1.000000,35.479446 1.000000,1.000000 C35.020580,1.000000 69.041634,1.000000 103.531342,1.000000 z" opacity="1"/><path fill="#FEFEFE" stroke="none" d="M150.666138,58.253128 C173.820251,74.333000 184.863739,102.381546 178.438416,128.267654 C171.453857,156.406754 149.382462,176.243057 121.110870,179.789871 C87.489151,184.007889 54.183548,159.727020 48.120090,126.577248 C41.657825,91.247147 63.071220,57.307251 97.008980,49.018887 C116.108536,44.354343 133.862640,47.476318 150.666138,58.253128 z" opacity="1"/></svg>