<svg xmlns="http://www.w3.org/2000/svg" xmlns:xlink="http://www.w3.org/1999/xlink" id="Layer_1" width="100%" x="0" y="0" enable-background="new 0 0 216 234" version="1.1" viewBox="0 0 216 234" xml:space="preserve"><path fill="#FEFEFE" stroke="none" d="M154.000000,235.000000 C103.071587,235.000000 52.143177,235.000000 1.000000,235.000000 C1.000000,182.312637 1.000000,129.624969 1.332861,76.593346 C5.585139,84.008858 13.246260,79.542175 18.812807,81.377670 C20.274858,84.726746 21.101517,88.339935 23.170757,90.978752 C26.752371,95.546242 25.653753,98.330925 21.665884,101.976463 C13.648897,109.305237 13.886590,111.673416 21.690178,119.145676 C22.410309,119.835220 23.182831,120.469704 23.917583,121.144386 C27.523739,124.455803 31.074739,124.197922 34.433769,120.840004 C37.468212,117.806564 40.380489,114.650917 43.061417,111.847420 C47.621201,113.412865 51.639626,114.925186 55.743202,116.152885 C58.321312,116.924194 58.887890,118.370811 58.698578,120.913803 C58.404057,124.870155 58.407673,128.869965 58.606823,132.835190 C58.770645,136.097092 60.752090,137.922363 64.088264,138.112106 C79.151161,138.968826 81.871803,138.550369 80.839302,122.165886 C80.797516,121.502823 80.413544,120.696373 80.669861,120.210327 C81.445557,118.739403 82.143440,116.767464 83.437744,116.116707 C87.242867,114.203552 91.321404,112.834206 95.462875,111.184204 C98.192665,114.101875 100.729477,117.507172 103.960030,120.020905 C106.093872,121.681267 109.369217,123.129761 111.878479,122.789978 C117.027740,122.092720 123.137154,113.268555 123.299202,107.858604 C123.888634,107.144875 124.262497,106.571968 124.708191,106.428802 C125.440796,110.256363 126.055595,113.663986 126.777512,117.048759 C127.310570,119.547997 127.068237,121.447403 124.408310,122.790512 C121.623245,124.196823 118.966881,125.947769 116.494713,127.859085 C113.949272,129.827057 112.110733,130.154236 109.190468,127.963585 C98.396347,119.866310 96.122337,120.533997 89.706360,132.512253 C89.629547,132.655670 89.474236,132.755875 89.390724,132.897049 C86.910896,137.088913 87.935181,140.494797 91.791893,143.179459 C94.487488,145.055847 97.252617,146.832352 99.701828,148.463730 C98.735626,153.150787 97.352036,157.474304 97.083763,161.865967 C96.837593,165.895676 95.027512,167.276733 91.449661,167.926086 C80.534027,169.907211 79.577789,171.472443 82.148628,182.176712 C82.380753,183.143188 82.667046,184.097855 82.958900,185.048569 C84.209915,189.123795 86.897797,191.081573 91.194725,190.424637 C94.746010,189.881714 98.275322,189.195114 101.566902,188.615738 C104.003273,191.944122 105.776192,195.583481 108.611481,197.950089 C112.718353,201.378082 111.931976,203.958893 109.281105,207.781158 C102.464676,217.609711 103.162476,219.897812 113.594360,225.826859 C120.075844,229.510696 122.458771,228.877960 126.529083,222.342865 C128.437164,219.279343 130.300705,216.188080 131.932129,213.521744 C136.600723,214.088303 140.684479,214.846054 144.790421,214.995880 C147.851974,215.107590 148.430206,216.527908 149.067261,219.186234 C150.351166,224.543839 152.316055,229.738266 154.000000,235.000000 z" opacity="1"/><path fill="#FEFEFE" stroke="none" d="M124.636353,105.999062 C124.262497,106.571968 123.888634,107.144875 123.074142,107.610397 C119.111954,103.779732 115.590385,100.056465 112.065933,96.330139 C113.801575,92.570808 115.813873,88.945076 117.158714,85.086685 C118.423096,81.459114 120.604538,80.345741 124.241478,80.523232 C137.779999,81.183899 138.612228,80.279366 138.051407,66.602974 C137.812454,60.775608 135.795044,57.597809 130.408295,58.623577 C120.930099,60.428452 117.854462,55.580151 114.956551,48.137161 C113.228828,43.699703 113.431183,41.216377 117.033104,38.017769 C124.743706,31.170540 124.610458,28.228899 117.498314,20.854536 C116.921104,20.256048 116.345856,19.654730 115.747597,19.077642 C111.387718,14.872040 108.084679,14.315370 104.440529,19.083630 C99.277863,25.838806 94.190605,26.826290 86.657433,23.089544 C82.337189,20.946537 80.242516,19.325800 80.811478,14.119016 C81.743340,5.591075 80.357437,3.698083 74.000000,1.000000 C121.596123,1.000000 169.192245,1.000000 217.000000,1.000000 C217.000000,51.687366 217.000000,102.375023 216.637695,153.405197 C214.349869,143.744873 212.369278,140.976410 205.745819,143.221008 C197.177719,146.124588 192.999771,142.951172 188.827438,136.186340 C186.435165,132.307617 185.381638,129.849411 188.493027,125.767754 C194.709167,117.613205 193.916626,114.631042 185.493011,108.920731 C184.533127,108.270027 183.570648,107.619492 182.576859,107.023033 C178.694977,104.693153 174.581253,104.797050 172.799698,109.021988 C169.008972,118.011635 163.163879,119.859322 154.170364,117.249504 C150.495804,116.183189 148.633636,115.048470 148.259613,111.439445 C148.122772,110.119080 148.063751,108.765999 147.717270,107.496613 C146.664780,103.640564 145.800323,99.532532 140.721970,98.995911 C134.006226,98.286285 126.506172,101.577637 124.636353,105.999062 z" opacity="1"/><path fill="#010101" stroke="none" d="M73.545891,1.000000 C80.357437,3.698083 81.743340,5.591075 80.811478,14.119016 C80.242516,19.325800 82.337189,20.946537 86.657433,23.089544 C94.190605,26.826290 99.277863,25.838806 104.440529,19.083630 C108.084679,14.315370 111.387718,14.872040 115.747597,19.077642 C116.345856,19.654730 116.921104,20.256048 117.498314,20.854536 C124.610458,28.228899 124.743706,31.170540 117.033104,38.017769 C113.431183,41.216377 113.228828,43.699703 114.956551,48.137161 C117.854462,55.580151 120.930099,60.428452 130.408295,58.623577 C135.795044,57.597809 137.812454,60.775608 138.051407,66.602974 C138.612228,80.279366 137.779999,81.183899 124.241478,80.523232 C120.604538,80.345741 118.423096,81.459114 117.158714,85.086685 C115.813873,88.945076 113.801575,92.570808 112.065933,96.330139 C115.590385,100.056465 119.111954,103.779732 122.858574,107.751205 C123.137154,113.268555 117.027740,122.092720 111.878479,122.789978 C109.369217,123.129761 106.093872,121.681267 103.960030,120.020905 C100.729477,117.507172 98.192665,114.101875 95.462875,111.184204 C91.321404,112.834206 87.242867,114.203552 83.437744,116.116707 C82.143440,116.767464 81.445557,118.739403 80.669861,120.210327 C80.413544,120.696373 80.797516,121.502823 80.839302,122.165886 C81.871803,138.550369 79.151161,138.968826 64.088264,138.112106 C60.752090,137.922363 58.770645,136.097092 58.606823,132.835190 C58.407673,128.869965 58.404057,124.870155 58.698578,120.913803 C58.887890,118.370811 58.321312,116.924194 55.743202,116.152885 C51.639626,114.925186 47.621201,113.412865 43.061417,111.847420 C40.380489,114.650917 37.468212,117.806564 34.433769,120.840004 C31.074739,124.197922 27.523739,124.455803 23.917583,121.144386 C23.182831,120.469704 22.410309,119.835220 21.690178,119.145676 C13.886590,111.673416 13.648897,109.305237 21.665884,101.976463 C25.653753,98.330925 26.752371,95.546242 23.170757,90.978752 C21.101517,88.339935 20.274858,84.726746 18.812807,81.377670 C13.246260,79.542175 5.585139,84.008858 1.332861,76.124687 C1.000000,71.975456 1.000000,67.950912 1.329906,63.298904 C3.062534,61.421810 4.289415,59.503010 5.908700,59.077499 C8.412631,58.419514 11.198962,58.579098 13.839370,58.764538 C16.936806,58.982075 18.549452,58.061863 19.575073,54.851131 C21.023718,50.316105 23.300978,46.045769 25.334248,41.411007 C24.768312,40.809345 24.012865,39.948238 23.197491,39.148216 C13.721957,29.851046 13.740912,28.180990 23.459929,18.920841 C27.661791,14.917360 30.893070,14.299845 34.374306,18.896757 C39.675690,25.897154 44.628117,25.912172 52.269814,22.522266 C57.318687,20.282555 58.723633,18.513126 58.156353,13.366250 C57.301743,5.612433 58.753468,3.274251 64.000000,1.000000 C67.030594,1.000000 70.061188,1.000000 73.545891,1.000000 M82.330666,82.925240 C89.385345,76.142563 91.045113,67.213776 86.680511,59.525047 C82.289658,51.790100 72.470146,48.238365 62.827026,50.897217 C53.749424,53.400143 49.028355,59.371204 48.994953,68.391586 C48.960751,77.629532 53.816368,84.411842 62.734364,86.540535 C69.357140,88.121368 75.921532,87.565765 82.330666,82.925240 z" opacity="1"/><path fill="#010101" stroke="none" d="M124.708199,106.428802 C126.506172,101.577637 134.006226,98.286285 140.721970,98.995911 C145.800323,99.532532 146.664780,103.640564 147.717270,107.496613 C148.063751,108.765999 148.122772,110.119080 148.259613,111.439445 C148.633636,115.048470 150.495804,116.183189 154.170364,117.249504 C163.163879,119.859322 169.008972,118.011635 172.799698,109.021988 C174.581253,104.797050 178.694977,104.693153 182.576859,107.023033 C183.570648,107.619492 184.533127,108.270027 185.493011,108.920731 C193.916626,114.631042 194.709167,117.613205 188.493027,125.767754 C185.381638,129.849411 186.435165,132.307617 188.827438,136.186340 C192.999771,142.951172 197.177719,146.124588 205.745819,143.221008 C212.369278,140.976410 214.349869,143.744873 216.637695,153.873856 C217.000000,156.041672 217.000000,158.083328 216.682236,160.724457 C214.632095,162.492722 212.845825,164.737137 211.176208,164.653473 C201.312286,164.159180 198.466873,169.705551 197.007858,178.300674 C196.219543,182.944580 196.819763,184.980179 200.851105,187.133865 C212.224228,193.209793 212.616989,195.580444 205.045197,206.091064 C204.948410,206.225418 204.875748,206.377319 204.777374,206.510330 C201.249786,211.279190 198.454300,211.964737 193.307602,208.871689 C189.649918,206.673477 186.213440,204.107162 182.732635,201.742111 C181.660980,202.546921 180.945450,203.332703 180.056442,203.713623 C170.992813,207.597244 168.422546,213.398163 172.630814,222.924667 C174.968781,228.217255 172.249481,231.309036 166.355774,233.085403 C164.237289,233.723938 162.118591,234.361816 160.000000,235.000000 C158.285645,235.000000 156.571289,235.000000 154.428467,235.000000 C152.316055,229.738266 150.351166,224.543839 149.067261,219.186234 C148.430206,216.527908 147.851974,215.107590 144.790421,214.995880 C140.684479,214.846054 136.600723,214.088303 131.932129,213.521744 C130.300705,216.188080 128.437164,219.279343 126.529083,222.342865 C122.458771,228.877960 120.075844,229.510696 113.594360,225.826859 C103.162476,219.897812 102.464676,217.609711 109.281105,207.781158 C111.931976,203.958893 112.718353,201.378082 108.611481,197.950089 C105.776192,195.583481 104.003273,191.944122 101.566902,188.615738 C98.275322,189.195114 94.746010,189.881714 91.194725,190.424637 C86.897797,191.081573 84.209915,189.123795 82.958900,185.048569 C82.667046,184.097855 82.380753,183.143188 82.148628,182.176712 C79.577789,171.472443 80.534027,169.907211 91.449661,167.926086 C95.027512,167.276733 96.837593,165.895676 97.083763,161.865967 C97.352036,157.474304 98.735626,153.150787 99.701828,148.463730 C97.252617,146.832352 94.487488,145.055847 91.791893,143.179459 C87.935181,140.494797 86.910896,137.088913 89.390724,132.897049 C89.474236,132.755875 89.629547,132.655670 89.706360,132.512253 C96.122337,120.533997 98.396347,119.866310 109.190468,127.963585 C112.110733,130.154236 113.949272,129.827057 116.494713,127.859085 C118.966881,125.947769 121.623245,124.196823 124.408310,122.790512 C127.068237,121.447403 127.310570,119.547997 126.777512,117.048759 C126.055595,113.663986 125.440796,110.256363 124.708199,106.428802 M163.934647,153.668106 C162.977661,152.749481 162.100891,151.725006 161.050751,150.929352 C154.106491,145.668015 143.597931,145.745941 135.878357,151.060806 C129.134705,155.703766 126.329750,163.298981 128.566330,171.137238 C130.738159,178.748566 135.741516,183.349380 143.618195,184.375946 C152.317917,185.509766 159.839584,182.985794 164.980133,175.638260 C169.944916,168.541962 168.834183,161.273773 163.934647,153.668106 z" opacity="1"/><path fill="#FDFDFD" stroke="none" d="M160.468658,235.000000 C162.118591,234.361816 164.237289,233.723938 166.355774,233.085403 C172.249481,231.309036 174.968781,228.217255 172.630814,222.924667 C168.422546,213.398163 170.992813,207.597244 180.056442,203.713623 C180.945450,203.332703 181.660980,202.546921 182.732635,201.742111 C186.213440,204.107162 189.649918,206.673477 193.307602,208.871689 C198.454300,211.964737 201.249786,211.279190 204.777374,206.510330 C204.875748,206.377319 204.948410,206.225418 205.045197,206.091064 C212.616989,195.580444 212.224228,193.209793 200.851105,187.133865 C196.819763,184.980179 196.219543,182.944580 197.007858,178.300674 C198.466873,169.705551 201.312286,164.159180 211.176208,164.653473 C212.845825,164.737137 214.632095,162.492722 216.682236,161.161957 C217.000000,185.584000 217.000000,210.168015 217.000000,235.000000 C198.313171,235.000000 179.625244,235.000000 160.468658,235.000000 z" opacity="1"/><path fill="#FCFCFC" stroke="none" d="M63.531342,1.000000 C58.753468,3.274251 57.301743,5.612433 58.156353,13.366250 C58.723633,18.513126 57.318687,20.282555 52.269814,22.522266 C44.628117,25.912172 39.675690,25.897154 34.374306,18.896757 C30.893070,14.299845 27.661791,14.917360 23.459929,18.920841 C13.740912,28.180990 13.721957,29.851046 23.197491,39.148216 C24.012865,39.948238 24.768312,40.809345 25.334248,41.411007 C23.300978,46.045769 21.023718,50.316105 19.575073,54.851131 C18.549452,58.061863 16.936806,58.982075 13.839370,58.764538 C11.198962,58.579098 8.412631,58.419514 5.908700,59.077499 C4.289415,59.503010 3.062534,61.421810 1.329906,62.835724 C1.000000,42.405926 1.000000,21.811853 1.000000,1.000000 C21.687052,1.000000 42.374866,1.000000 63.531342,1.000000 z" opacity="1"/><path fill="#FCFCFC" stroke="none" d="M82.019958,83.128036 C75.921532,87.565765 69.357140,88.121368 62.734364,86.540535 C53.816368,84.411842 48.960751,77.629532 48.994953,68.391586 C49.028355,59.371204 53.749424,53.400143 62.827026,50.897217 C72.470146,48.238365 82.289658,51.790100 86.680511,59.525047 C91.045113,67.213776 89.385345,76.142563 82.019958,83.128036 z" opacity="1"/><path fill="#FCFCFC" stroke="none" d="M164.151154,153.969254 C168.834183,161.273773 169.944916,168.541962 164.980133,175.638260 C159.839584,182.985794 152.317917,185.509766 143.618195,184.375946 C135.741516,183.349380 130.738159,178.748566 128.566330,171.137238 C126.329750,163.298981 129.134705,155.703766 135.878357,151.060806 C143.597931,145.745941 154.106491,145.668015 161.050751,150.929352 C162.100891,151.725006 162.977661,152.749481 164.151154,153.969254 z" opacity="1"/></svg>