<svg version="1.1" id="Layer_1" xmlns="http://www.w3.org/2000/svg" xmlns:xlink="http://www.w3.org/1999/xlink" x="0px" y="0px"
	 width="100%" viewBox="0 0 271 186" enable-background="new 0 0 271 186" xml:space="preserve">
<path fill="#FEFEFE" opacity="1.000000" stroke="none" 
	d="
M1.000000,135.000000 
	C1.000000,90.388123 1.000000,45.776237 1.000000,1.000000 
	C75.020813,1.000000 149.041748,1.000000 223.403244,1.321882 
	C216.662033,6.282997 209.647980,11.030239 202.476776,15.526865 
	C196.864517,19.045969 194.086517,23.995220 192.861725,30.459513 
	C187.322891,59.692669 181.887299,88.954796 180.771866,118.751778 
	C180.450546,127.335396 178.196945,133.542419 169.737473,136.498795 
	C169.442047,136.602051 169.135529,136.673523 168.385651,136.888245 
	C162.970016,129.444565 155.057816,128.511688 146.330887,128.725388 
	C130.684998,129.108505 115.019188,129.042694 99.369171,128.756485 
	C89.671501,128.579132 80.214081,128.368866 73.316650,138.157516 
	C70.961823,132.697067 68.239151,128.329620 67.218513,123.595253 
	C65.332161,114.845146 64.432259,105.881622 63.141960,97.004013 
	C62.118477,89.962143 57.542908,86.060440 50.154476,85.971123 
	C42.580460,85.879570 37.201385,89.822800 36.049229,96.577484 
	C35.351265,100.669388 34.399151,104.853806 34.613731,108.941406 
	C35.435768,124.600761 31.768183,123.091385 18.863914,123.700592 
	C10.350229,124.102509 4.238468,126.924942 1.000000,135.000000 
z"/>
<path fill="#030303" opacity="1.000000" stroke="none" 
	d="
M1.000000,135.468658 
	C4.238468,126.924942 10.350229,124.102509 18.863914,123.700592 
	C31.768183,123.091385 35.435768,124.600761 34.613731,108.941406 
	C34.399151,104.853806 35.351265,100.669388 36.049229,96.577484 
	C37.201385,89.822800 42.580460,85.879570 50.154476,85.971123 
	C57.542908,86.060440 62.118477,89.962143 63.141960,97.004013 
	C64.432259,105.881622 65.332161,114.845146 67.218513,123.595253 
	C68.239151,128.329620 70.961823,132.697067 73.316650,138.157516 
	C80.214081,128.368866 89.671501,128.579132 99.369171,128.756485 
	C115.019188,129.042694 130.684998,129.108505 146.330887,128.725388 
	C155.057816,128.511688 162.970016,129.444565 168.385651,136.888245 
	C169.135529,136.673523 169.442047,136.602051 169.737473,136.498795 
	C178.196945,133.542419 180.450546,127.335396 180.771866,118.751778 
	C181.887299,88.954796 187.322891,59.692669 192.861725,30.459513 
	C194.086517,23.995220 196.864517,19.045969 202.476776,15.526865 
	C209.647980,11.030239 216.662033,6.282997 223.871902,1.321882 
	C228.689255,1.000000 233.378510,1.000000 238.677795,1.328542 
	C243.959808,3.655575 248.517807,6.002036 253.328339,7.577507 
	C262.342926,10.529834 269.291595,15.419861 272.000000,25.000000 
	C272.000000,33.020901 272.000000,41.041798 271.651245,49.643578 
	C256.590118,83.162430 241.969894,116.142418 227.013107,148.969055 
	C225.619583,152.027512 222.084824,154.105225 219.563568,156.657364 
	C218.443192,157.791473 217.370789,158.972961 215.941879,160.487808 
	C209.953171,158.642960 209.627991,158.864258 207.838013,162.251221 
	C199.614365,177.811981 193.048553,180.523819 178.495377,178.418564 
	C175.456879,177.979019 172.530319,176.765747 169.531982,175.903229 
	C159.406235,184.704559 159.005875,184.853210 145.390823,184.853210 
	C129.908356,184.853210 114.421188,184.621979 98.945137,184.937027 
	C89.133553,185.136765 79.883072,184.563324 74.007133,176.212479 
	C67.003281,179.702972 60.546391,182.920853 53.620285,186.064377 
	C44.259399,185.997849 35.367241,185.960526 26.476545,186.057587 
	C24.981113,186.073914 23.492020,186.671158 22.000000,187.000000 
	C22.000000,187.000000 21.500000,187.000000 21.114119,186.635132 
	C12.177741,185.354660 4.395990,183.203064 1.000000,174.000000 
	C1.000000,161.312439 1.000000,148.624878 1.000000,135.468658 
M185.703842,166.971039 
	C189.945465,166.871613 195.529785,162.960678 196.472214,158.531097 
	C196.816040,156.914993 194.912811,154.820816 193.705856,152.367599 
	C191.132553,149.797852 188.794510,146.903748 185.886978,144.794769 
	C184.427155,143.735886 181.675232,143.365540 179.950043,143.962433 
	C173.845657,146.074478 173.992294,151.326660 174.112595,156.658081 
	C174.319962,165.849594 175.857620,167.434494 185.703842,166.971039 
M208.670563,147.867859 
	C213.937515,147.422470 216.683029,144.305481 218.759613,139.591843 
	C230.211319,113.597641 241.633148,87.582382 253.681534,61.863060 
	C258.110046,52.409660 260.490875,43.056408 259.887909,32.620014 
	C259.333893,23.031042 258.764679,21.730352 248.577621,18.419426 
	C244.470291,16.633934 240.308716,14.961725 236.271667,13.029412 
	C232.616043,11.279674 229.432159,11.443552 226.054596,13.896207 
	C220.811340,17.703648 215.443863,21.376896 209.886215,24.701044 
	C206.376175,26.800478 204.957733,29.698240 204.194351,33.482464 
	C197.838913,64.987869 193.558456,96.768433 191.327560,128.826340 
	C191.238907,130.100449 191.061752,131.912460 191.773148,132.611343 
	C197.033585,137.779236 202.509201,142.728104 208.670563,147.867859 
M102.509293,172.956100 
	C118.497948,172.956100 134.486618,172.968842 150.475250,172.950394 
	C157.870590,172.941879 162.424667,168.262085 162.364853,160.834641 
	C162.340714,157.836960 162.376938,154.838791 162.353714,151.841095 
	C162.302170,145.189789 157.540176,140.313263 150.786926,140.290756 
	C131.300964,140.225784 111.814484,140.222824 92.328545,140.291168 
	C85.075294,140.316635 80.273781,145.300354 80.240860,152.520432 
	C80.228714,155.185150 80.232239,157.849976 80.240166,160.514740 
	C80.263039,168.207230 84.898254,172.906219 92.521103,172.953018 
	C95.518867,172.971436 98.516838,172.956085 102.509293,172.956100 
M38.496044,174.866943 
	C39.328568,174.866943 40.178673,174.755692 40.990921,174.884018 
	C49.829575,176.280502 57.295517,173.283859 63.945709,167.723541 
	C64.909500,166.917709 66.464828,165.842773 66.418823,164.961670 
	C66.078484,158.442230 67.752075,151.887848 64.384445,145.425201 
	C60.670841,138.298630 57.439079,130.754089 55.280582,123.032890 
	C53.284565,115.892921 53.061306,108.266243 51.858475,100.886314 
	C51.673008,99.748383 50.419991,98.784447 49.660683,97.740044 
	C48.813156,98.778687 47.363659,99.742065 47.222733,100.869064 
	C46.625671,105.643776 46.184093,110.463669 46.113003,115.273361 
	C45.935444,127.286217 39.193409,134.382614 27.113396,135.006332 
	C23.791367,135.177872 20.422516,135.208511 17.181433,135.845016 
	C15.658638,136.144058 14.387812,137.726166 13.002804,138.726837 
	C14.498047,139.301758 15.952658,140.098923 17.501249,140.382050 
	C18.764334,140.612976 20.157593,140.035965 21.461897,140.156174 
	C24.814411,140.465118 27.153141,142.118591 27.321302,145.729660 
	C27.487507,149.298676 25.422951,151.275894 22.086235,151.912811 
	C20.631063,152.190582 19.007490,151.768280 17.624298,152.195099 
	C15.872531,152.735626 14.287700,153.817169 12.630875,154.665375 
	C12.819044,155.399841 13.007213,156.134293 13.195381,156.868744 
	C16.067919,156.868744 18.943163,156.947769 21.812342,156.849609 
	C25.783653,156.713730 28.501694,158.500580 28.634157,162.434891 
	C28.778366,166.718048 25.907337,168.543915 21.769707,168.473984 
	C20.438042,168.451477 19.018087,168.181030 17.794964,168.546936 
	C16.141624,169.041534 14.639217,170.040665 13.072049,170.823318 
	C14.585418,171.816818 16.028601,173.522171 17.624413,173.679504 
	C24.225071,174.330292 30.871923,174.512558 38.496044,174.866943 
z"/>
<path fill="#FDFDFD" opacity="1.000000" stroke="none" 
	d="
M54.089500,186.138748 
	C60.546391,182.920853 67.003281,179.702972 74.007133,176.212479 
	C79.883072,184.563324 89.133553,185.136765 98.945137,184.937027 
	C114.421188,184.621979 129.908356,184.853210 145.390823,184.853210 
	C159.005875,184.853210 159.406235,184.704559 169.531982,175.903229 
	C172.530319,176.765747 175.456879,177.979019 178.495377,178.418564 
	C193.048553,180.523819 199.614365,177.811981 207.838013,162.251221 
	C209.627991,158.864258 209.953171,158.642960 215.941879,160.487808 
	C217.370789,158.972961 218.443192,157.791473 219.563568,156.657364 
	C222.084824,154.105225 225.619583,152.027512 227.013107,148.969055 
	C241.969894,116.142418 256.590118,83.162430 271.651245,50.112228 
	C272.000000,95.610336 272.000000,141.220673 272.000000,187.000000 
	C199.645859,187.000000 127.291588,187.000000 54.472366,186.782745 
	C54.007412,186.565491 54.089500,186.138748 54.089500,186.138748 
z"/>
<path fill="#FBFBFB" opacity="1.000000" stroke="none" 
	d="
M272.000000,24.531307 
	C269.291595,15.419861 262.342926,10.529834 253.328339,7.577507 
	C248.517807,6.002036 243.959808,3.655575 239.143921,1.328542 
	C249.914841,1.000000 260.829681,1.000000 272.000000,1.000000 
	C272.000000,8.685658 272.000000,16.374138 272.000000,24.531307 
z"/>
<path fill="#F7F7F7" opacity="1.000000" stroke="none" 
	d="
M1.000000,174.476654 
	C4.395990,183.203064 12.177741,185.354660 20.864119,186.635132 
	C14.426323,187.000000 7.852646,187.000000 1.000000,187.000000 
	C1.000000,182.988663 1.000000,178.970993 1.000000,174.476654 
z"/>
<path fill="#929292" opacity="1.000000" stroke="none" 
	d="
M53.620285,186.064377 
	C54.089500,186.138748 54.007412,186.565491 54.003708,186.782745 
	C43.645771,187.000000 33.291542,187.000000 22.468657,187.000000 
	C23.492020,186.671158 24.981113,186.073914 26.476545,186.057587 
	C35.367241,185.960526 44.259399,185.997849 53.620285,186.064377 
z"/>
<path fill="#CFCECD" opacity="1.000000" stroke="none" 
	d="
M207.917160,147.745850 
	C202.509201,142.728104 197.033585,137.779236 191.773148,132.611343 
	C191.061752,131.912460 191.238907,130.100449 191.327560,128.826340 
	C193.558456,96.768433 197.838913,64.987869 204.194351,33.482464 
	C204.957733,29.698240 206.376175,26.800478 209.886215,24.701044 
	C215.443863,21.376896 220.811340,17.703648 226.054596,13.896207 
	C229.432159,11.443552 232.616043,11.279674 236.271667,13.029412 
	C240.308716,14.961725 244.470291,16.633934 248.637375,19.081806 
	C248.423386,23.700813 248.377274,27.688736 247.838364,31.608915 
	C244.683945,54.555332 237.969162,76.577011 229.448898,97.999939 
	C222.774460,114.781883 215.130402,131.178192 207.917160,147.745850 
z"/>
<path fill="#CDCCCB" opacity="1.000000" stroke="none" 
	d="
M102.012001,172.956100 
	C98.516838,172.956085 95.518867,172.971436 92.521103,172.953018 
	C84.898254,172.906219 80.263039,168.207230 80.240166,160.514740 
	C80.232239,157.849976 80.228714,155.185150 80.240860,152.520432 
	C80.273781,145.300354 85.075294,140.316635 92.328545,140.291168 
	C111.814484,140.222824 131.300964,140.225784 150.786926,140.290756 
	C157.540176,140.313263 162.302170,145.189789 162.353714,151.841095 
	C162.376938,154.838791 162.340714,157.836960 162.364853,160.834641 
	C162.424667,168.262085 157.870590,172.941879 150.475250,172.950394 
	C134.486618,172.968842 118.497948,172.956100 102.012001,172.956100 
z"/>
<path fill="#CCCBCA" opacity="1.000000" stroke="none" 
	d="
M37.998924,174.866943 
	C30.871923,174.512558 24.225071,174.330292 17.624413,173.679504 
	C16.028601,173.522171 14.585418,171.816818 13.072050,170.823318 
	C14.639217,170.040665 16.141624,169.041534 17.794964,168.546936 
	C19.018087,168.181030 20.438042,168.451477 21.769707,168.473984 
	C25.907337,168.543915 28.778366,166.718048 28.634157,162.434891 
	C28.501694,158.500580 25.783653,156.713730 21.812342,156.849609 
	C18.943163,156.947769 16.067919,156.868744 13.195381,156.868744 
	C13.007213,156.134293 12.819044,155.399841 12.630875,154.665375 
	C14.287700,153.817169 15.872531,152.735626 17.624298,152.195099 
	C19.007490,151.768280 20.631063,152.190582 22.086235,151.912811 
	C25.422951,151.275894 27.487507,149.298676 27.321302,145.729660 
	C27.153141,142.118591 24.814411,140.465118 21.461897,140.156174 
	C20.157593,140.035965 18.764334,140.612976 17.501249,140.382050 
	C15.952658,140.098923 14.498047,139.301758 13.002802,138.726837 
	C14.387812,137.726166 15.658638,136.144058 17.181433,135.845016 
	C20.422516,135.208511 23.791367,135.177872 27.113396,135.006332 
	C39.193409,134.382614 45.935444,127.286217 46.113003,115.273361 
	C46.184093,110.463669 46.625671,105.643776 47.222733,100.869064 
	C47.363659,99.742065 48.813156,98.778687 49.660683,97.740044 
	C50.419991,98.784447 51.673008,99.748383 51.858475,100.886314 
	C53.061306,108.266243 53.284565,115.892921 55.280582,123.032890 
	C57.439079,130.754089 60.670841,138.298630 64.384445,145.425201 
	C67.752075,151.887848 66.078484,158.442230 66.418823,164.961670 
	C66.464828,165.842773 64.909500,166.917709 63.945709,167.723541 
	C57.295517,173.283859 49.829575,176.280502 40.990921,174.884018 
	C40.178673,174.755692 39.328568,174.866943 37.998924,174.866943 
z"/>
<path fill="#999998" opacity="1.000000" stroke="none" 
	d="
M208.293854,147.806854 
	C215.130402,131.178192 222.774460,114.781883 229.448898,97.999939 
	C237.969162,76.577011 244.683945,54.555332 247.838364,31.608915 
	C248.377274,27.688736 248.423386,23.700813 248.857361,19.359812 
	C258.764679,21.730352 259.333893,23.031042 259.887909,32.620014 
	C260.490875,43.056408 258.110046,52.409660 253.681534,61.863060 
	C241.633148,87.582382 230.211319,113.597641 218.759613,139.591843 
	C216.683029,144.305481 213.937515,147.422470 208.293854,147.806854 
z"/>
<path fill="#CBCAC9" opacity="1.000000" stroke="none" 
	d="
M184.920410,166.738495 
	C175.857620,167.434494 174.319962,165.849594 174.112595,156.658081 
	C173.992294,151.326660 173.845657,146.074478 179.950043,143.962433 
	C181.675232,143.365540 184.427155,143.735886 185.886978,144.794769 
	C188.794510,146.903748 191.132553,149.797852 193.837677,153.011230 
	C190.953140,158.016083 187.936783,162.377289 184.920410,166.738495 
z"/>
<path fill="#989898" opacity="1.000000" stroke="none" 
	d="
M185.312134,166.854767 
	C187.936783,162.377289 190.953140,158.016083 194.002121,153.299805 
	C194.912811,154.820816 196.816040,156.914993 196.472214,158.531097 
	C195.529785,162.960678 189.945465,166.871613 185.312134,166.854767 
z"/>
</svg>