<?xml version="1.0" standalone="no"?>
<!DOCTYPE svg PUBLIC "-//W3C//DTD SVG 20010904//EN"
 "http://www.w3.org/TR/2001/REC-SVG-20010904/DTD/svg10.dtd">
<svg version="1.0" xmlns="http://www.w3.org/2000/svg"
 width="683.000000pt" height="403.000000pt" viewBox="0 0 683.000000 403.000000"
 preserveAspectRatio="xMidYMid meet">

<g transform="translate(0.000000,403.000000) scale(0.100000,-0.100000)"
fill="#000000" stroke="none">
<path d="M3910 3848 c-292 -36 -576 -236 -784 -551 -84 -129 -172 -359 -202
-531 -21 -120 -21 -325 0 -445 27 -155 88 -311 166 -426 43 -65 45 -68 23 -55
-18 12 -83 102 -83 117 -1 15 -69 87 -76 81 -9 -9 33 -122 64 -171 31 -51 20
-60 -18 -16 l-30 34 2 -30 c3 -29 2 -29 -37 -26 -22 1 -43 5 -47 8 -14 8 -8
21 13 26 12 3 18 10 14 16 -6 10 13 16 43 12 15 -2 16 28 2 64 -13 34 -31 23
-23 -15 5 -29 5 -29 -27 -20 -41 12 -47 18 -26 26 10 4 15 13 11 24 -4 14 0
19 17 22 24 3 25 8 12 85 -4 29 -7 31 -24 21 -26 -16 -40 0 -16 18 19 13 18
15 -10 78 -29 66 -44 82 -44 47 0 -24 -24 -44 -47 -37 -10 3 -40 8 -67 10 -27
3 -54 11 -61 16 -7 6 -19 9 -26 8 -8 -2 -15 7 -17 20 l-3 22 -17 -20 c-16 -20
-22 -20 -81 -11 -36 6 -69 7 -75 2 -12 -10 -56 4 -56 17 0 5 11 19 24 31 14
13 26 39 30 63 4 23 18 70 32 106 14 35 24 66 21 69 -17 16 -50 -17 -93 -95
-59 -106 -164 -215 -246 -258 -32 -16 -58 -32 -58 -35 0 -12 36 -16 91 -13
l54 4 -50 -15 c-27 -8 -72 -15 -99 -15 -46 0 -48 1 -30 15 18 14 17 14 -14 15
-18 0 -31 -4 -28 -9 6 -9 -89 -21 -174 -21 -114 0 -257 36 -278 71 -12 18 -11
21 7 26 20 5 30 23 12 23 -4 0 -20 11 -35 25 -23 21 -30 23 -52 13 -13 -6 -40
-33 -59 -60 -33 -45 -35 -53 -35 -126 0 -43 -3 -82 -7 -85 -3 -4 -19 14 -34
41 -15 26 -41 60 -58 76 -17 17 -31 38 -31 48 0 10 -7 35 -15 54 l-15 36 -88
-3 c-48 -2 -93 0 -100 5 -6 4 -21 2 -33 -4 -20 -11 -57 -9 -134 6 -16 3 -56 8
-87 11 -32 3 -58 9 -58 14 0 16 -39 9 -49 -9 -5 -10 -12 -51 -16 -92 -6 -60
-13 -82 -34 -110 -38 -49 -72 -107 -98 -165 -16 -35 -17 -42 -5 -26 9 14 25
34 35 45 l18 21 -6 -22 c-4 -16 -2 -23 8 -23 17 0 53 -38 44 -47 -4 -3 -18 -1
-32 5 -34 16 -31 17 -44 -19 -14 -39 -14 -49 -1 -49 6 0 10 9 10 20 0 23 15
25 50 5 37 -21 40 -19 40 28 0 37 -4 46 -25 55 -35 16 -32 35 4 27 25 -5 29
-3 35 20 6 22 10 25 21 15 9 -7 41 -10 85 -8 87 4 87 3 70 -138 -7 -55 -13
-121 -13 -149 -2 -36 -6 -50 -17 -51 -8 -1 -17 -3 -20 -4 -19 -7 -41 -7 -46 1
-3 5 -10 7 -15 4 -5 -4 -9 -2 -9 4 0 5 -3 17 -6 25 -4 11 -2 15 8 11 8 -3 27
-1 41 4 17 7 27 7 27 1 0 -6 5 -10 10 -10 6 0 10 8 10 18 -1 19 -30 63 -30 43
0 -8 -7 -10 -20 -6 -12 4 -20 2 -20 -5 0 -7 -8 -2 -19 11 -10 13 -16 30 -13
38 3 9 0 12 -9 9 -8 -2 -15 -19 -17 -36 -5 -49 -22 -38 -22 14 0 39 -3 45 -16
40 -9 -4 -23 -1 -30 5 -9 8 -14 8 -14 1 0 -6 9 -13 19 -17 20 -6 35 -31 26
-45 -3 -5 -32 1 -66 12 -33 11 -63 17 -66 14 -11 -10 8 -21 75 -46 34 -12 61
-28 59 -33 -4 -13 -77 -20 -77 -8 0 5 -13 11 -28 14 -16 3 -34 16 -40 29 -11
23 -12 23 -9 -5 1 -15 7 -28 12 -28 6 -1 19 -8 30 -15 11 -8 29 -14 40 -14 11
0 28 -7 38 -14 18 -14 17 -15 -3 -21 -11 -4 -27 -1 -35 5 -8 6 -18 9 -24 6 -5
-3 -11 -2 -13 3 -1 5 -20 12 -40 16 -34 7 -38 5 -38 -15 0 -12 -5 -30 -11 -41
-9 -18 -6 -22 31 -36 24 -10 36 -19 29 -23 -6 -4 10 -11 35 -14 48 -7 55 -18
32 -49 -12 -15 -14 -16 -20 -2 -3 8 -11 15 -18 14 -10 0 -10 -2 0 -6 6 -2 12
-9 12 -14 0 -8 -22 -6 -72 8 -12 3 -18 -1 -18 -11 0 -11 9 -16 28 -16 63 0 73
-8 68 -57 l-4 -45 30 6 c36 7 58 23 58 42 0 24 28 15 34 -11 8 -32 29 -32 55
0 18 24 20 24 29 8 9 -14 13 -15 26 -4 11 9 16 10 16 2 0 -6 7 -11 15 -11 9 0
12 6 8 18 -5 14 -3 15 8 5 7 -7 21 -13 31 -13 14 0 18 9 19 38 l2 37 6 -34 c6
-32 8 -34 51 -33 73 0 77 1 83 23 3 12 10 18 16 15 6 -4 20 4 32 18 12 14 35
28 51 32 22 4 27 9 19 17 -15 15 -14 27 4 27 8 0 15 -5 15 -11 0 -8 13 -10 37
-6 20 4 42 2 48 -3 18 -15 205 -25 205 -11 0 6 7 11 15 11 9 0 15 9 15 22 0
20 -1 20 -13 5 -7 -10 -33 -19 -68 -23 -51 -6 -58 -4 -68 15 -10 17 -9 22 4
27 8 3 13 10 10 15 -3 4 -12 6 -20 2 -8 -3 -15 0 -15 6 0 6 15 11 33 11 17 0
55 6 82 13 45 12 50 16 53 43 l3 29 -19 -24 c-22 -27 -102 -47 -115 -28 -6 8
-7 6 -3 -5 7 -23 0 -23 -26 2 l-21 19 24 10 c13 6 50 15 83 21 32 7 54 16 49
21 -4 4 -41 1 -82 -7 -57 -12 -76 -13 -81 -3 -5 7 -21 10 -39 7 -17 -2 -31 -2
-31 2 0 4 -26 6 -59 4 l-58 -2 -7 75 c-9 113 -7 168 6 181 16 16 100 16 116 0
9 -9 12 -9 12 1 0 7 4 9 10 6 5 -3 25 5 43 19 38 29 57 33 57 12 0 -8 -16 -20
-35 -26 -31 -10 -49 -30 -26 -30 20 0 80 31 88 45 7 12 12 8 27 -18 20 -38 99
-80 194 -105 35 -9 63 -20 63 -25 0 -4 -3 -32 -6 -62 -12 -93 1 -157 46 -225
24 -35 53 -66 72 -74 41 -19 147 -51 212 -63 28 -6 59 -14 69 -18 14 -6 17 -5
11 4 -9 16 28 7 62 -15 35 -22 87 -17 121 11 17 14 36 25 44 25 16 0 45 30 66
69 25 43 43 105 57 191 21 125 19 192 -6 235 l-22 36 39 -6 c27 -4 34 -3 24 4
-8 5 -31 11 -50 13 -33 4 -35 6 -32 39 4 40 17 94 39 163 13 42 18 47 28 33 6
-9 20 -16 31 -16 36 1 99 -14 106 -25 4 -6 8 -21 8 -33 0 -13 5 -23 10 -23 6
0 10 8 10 18 0 27 11 34 25 15 11 -15 15 -14 38 11 24 26 27 27 54 13 16 -8
40 -13 55 -10 25 5 27 2 37 -49 6 -29 16 -79 21 -111 5 -32 15 -74 21 -92 7
-19 10 -38 6 -41 -4 -4 -28 -9 -55 -12 -56 -5 -117 21 -151 64 -23 30 -26 25
-12 -24 l10 -33 -37 6 c-83 14 -98 18 -112 31 -18 15 -63 8 -57 -10 2 -6 26
-16 53 -23 27 -6 63 -16 79 -22 17 -6 54 -14 82 -18 l53 -8 -49 -40 c-55 -45
-111 -123 -137 -191 -15 -41 -16 -54 -5 -107 13 -63 62 -147 86 -147 7 0 20
-7 29 -15 20 -20 30 -2 15 26 -6 12 -31 47 -55 76 -41 50 -55 83 -36 83 4 0
12 -10 17 -22 6 -13 16 -22 23 -20 7 1 12 -7 12 -18 0 -11 4 -20 9 -20 6 0 6
13 -1 33 -26 84 -25 85 18 22 15 -23 22 -41 15 -43 -12 -4 41 -52 57 -52 6 0
32 -11 59 -25 40 -21 65 -26 136 -28 84 -2 107 6 74 27 -11 7 -27 6 -51 -2
-32 -12 -38 -11 -65 9 -22 16 -38 20 -61 16 -27 -6 -33 -3 -48 23 -9 16 -29
35 -44 41 -25 10 -28 17 -28 56 0 38 -2 44 -14 34 -8 -7 -17 -8 -19 -4 -7 11
42 72 101 127 23 22 42 45 42 52 0 16 20 31 55 40 27 7 29 6 16 -9 -7 -10 -22
-17 -32 -17 -10 0 -21 -4 -24 -10 -7 -12 34 -13 52 -2 6 4 15 19 18 35 4 16
12 24 18 20 6 -4 29 -6 51 -4 35 2 38 0 26 -14 -7 -9 -19 -14 -27 -11 -7 3
-13 1 -13 -4 0 -6 14 -10 30 -10 23 0 30 4 30 20 0 11 5 20 11 20 7 0 9 10 7
25 -3 14 -1 28 3 31 5 3 9 -11 9 -30 0 -21 5 -36 12 -36 6 0 8 3 5 7 -10 9 31
35 43 28 15 -9 12 -25 -5 -25 -20 0 -19 -10 3 -27 15 -13 14 -14 -15 -10 -42
5 -43 -9 -2 -18 22 -5 34 -3 40 6 6 11 11 11 21 1 9 -9 17 -7 35 10 18 17 26
19 35 10 10 -10 8 -14 -10 -18 -22 -6 -31 -24 -12 -24 6 0 10 -5 10 -11 0 -7
-10 -9 -27 -5 l-28 6 33 -27 c18 -16 38 -38 45 -49 7 -12 20 -32 30 -46 16
-23 16 -27 1 -56 -8 -18 -13 -36 -9 -42 3 -5 -10 -16 -30 -24 -33 -14 -40 -24
-36 -54 2 -9 -9 -11 -39 -6 -31 5 -45 3 -60 -11 -24 -21 -18 -35 13 -30 48 7
87 18 87 25 0 11 39 20 45 10 3 -5 -3 -13 -12 -19 -10 -5 -15 -13 -11 -17 8
-7 68 34 106 73 13 13 28 20 34 17 7 -4 8 -2 4 5 -4 6 -2 18 4 26 7 8 18 34
25 57 l14 43 0 -40 c1 -62 -15 -104 -59 -157 -24 -28 -35 -48 -27 -48 14 0 63
62 92 119 12 24 16 47 12 76 -8 58 -35 133 -60 167 -11 15 -18 30 -15 33 3 3
32 -10 64 -29 63 -38 181 -79 254 -90 42 -6 44 -6 26 9 -11 8 -27 15 -35 15
-28 0 -145 47 -203 81 -205 121 -336 307 -410 581 -19 72 -22 108 -23 278 0
210 7 257 65 445 28 88 67 185 79 195 10 9 31 49 31 61 0 17 49 79 62 79 20 0
63 54 63 79 0 13 7 26 15 28 11 3 11 2 3 -4 -24 -17 1 -33 36 -23 19 5 37 7
42 4 10 -6 32 34 24 46 -3 5 6 20 20 34 27 27 31 26 15 -5 -14 -26 4 -25 31 2
37 37 32 12 -6 -28 -107 -112 -196 -244 -246 -363 -12 -30 -26 -59 -29 -65 -4
-5 -10 -22 -14 -37 -5 -22 -3 -28 10 -28 11 0 14 5 9 18 -4 12 0 10 16 -7 18
-19 19 -25 8 -32 -10 -6 -10 -9 -1 -9 6 0 12 -4 12 -10 0 -5 -19 -10 -43 -10
l-42 0 -19 -82 c-20 -88 -34 -338 -22 -402 6 -31 9 -34 29 -27 31 12 128 34
131 30 1 -2 14 -32 28 -67 l27 -62 -30 -15 c-16 -9 -45 -29 -64 -47 -21 -18
-40 -27 -45 -22 -11 11 -50 128 -50 149 0 8 -4 15 -10 15 -22 0 33 -185 86
-291 63 -127 180 -253 292 -316 107 -60 282 -105 282 -73 0 6 7 10 15 10 26 0
17 -16 -45 -79 -110 -112 -151 -232 -119 -341 9 -30 16 -37 35 -37 14 0 27 4
30 9 3 5 14 6 24 3 13 -4 20 0 24 13 9 28 -2 50 -35 64 -16 7 -29 16 -29 20 0
11 5 10 36 -4 22 -10 28 -10 38 4 10 14 12 2 12 -63 0 -54 -3 -76 -10 -69 -13
13 -93 13 -101 0 -3 -5 2 -23 12 -40 13 -23 24 -30 49 -30 17 0 37 7 44 15 7
8 17 15 23 15 5 0 -2 -9 -16 -20 -14 -11 -32 -20 -41 -20 -29 0 -18 -37 13
-43 17 -4 30 -14 34 -26 4 -17 13 -21 45 -21 26 0 42 -5 46 -15 6 -16 43 -20
65 -6 10 7 8 12 -10 25 -13 9 -34 16 -46 16 -14 0 -23 6 -23 15 0 19 2 19 74
-4 33 -10 53 -20 46 -23 -26 -8 -2 -40 27 -36 22 2 28 8 26 25 -3 27 -3 27 42
6 28 -13 38 -14 48 -4 9 9 9 14 -2 20 -18 11 40 32 68 24 17 -4 23 1 32 26 12
34 43 58 54 41 9 -15 19 -12 34 11 12 20 11 21 -8 16 -27 -7 -27 3 2 39 60 77
61 222 0 294 -47 57 -97 75 -198 74 -106 -2 -156 -20 -229 -83 -52 -45 -67
-49 -87 -24 -8 9 -26 24 -41 33 -19 11 -24 20 -18 30 7 12 14 10 38 -13 30
-29 53 -37 32 -12 -20 24 -6 27 20 5 51 -44 63 -7 19 55 -24 34 -30 48 -21 57
8 8 15 8 26 -1 8 -7 20 -10 26 -6 5 3 18 -7 28 -24 9 -17 22 -31 29 -31 24 0
24 22 -2 66 -20 34 -24 49 -16 57 9 9 17 8 31 -1 30 -18 42 -15 38 12 -1 13 3
31 11 40 9 11 10 16 2 16 -7 0 -9 5 -6 10 11 18 137 12 179 -9 37 -19 39 -19
65 -2 14 10 52 35 84 55 31 20 57 39 57 40 0 7 -54 101 -60 106 -4 3 -10 23
-13 44 -3 22 -10 43 -15 48 -5 5 -29 -3 -58 -21 -44 -27 -132 -59 -206 -75
-34 -8 -40 -46 -8 -46 37 0 18 -78 -24 -98 -54 -26 -90 -21 -133 20 -33 31
-29 36 23 30 41 -4 48 -2 76 27 l30 31 -30 -6 c-36 -7 -56 14 -21 23 17 5 2
10 -54 20 -209 35 -365 191 -423 423 -25 99 -15 329 19 431 86 258 258 453
468 530 118 43 257 40 374 -7 18 -7 18 -6 7 8 -10 13 -11 22 -2 39 11 19 13
20 28 6 13 -13 13 -21 4 -42 -10 -21 -9 -27 3 -31 8 -4 21 -1 28 5 8 6 34 18
58 26 81 29 158 -11 135 -71 -5 -13 -16 -16 -56 -12 -67 7 -76 -6 -39 -54 33
-41 55 -43 37 -3 -14 30 -9 36 30 39 29 2 30 0 29 -36 -1 -24 -9 -42 -22 -51
-17 -13 -18 -18 -7 -41 14 -32 25 -32 64 -5 24 18 28 26 23 49 -3 16 -2 31 4
35 6 3 11 0 11 -8 0 -31 24 -35 78 -11 59 27 59 26 21 111 -22 49 -23 71 -5
96 16 21 26 22 26 2 0 -8 -4 -15 -10 -15 -15 0 -12 -26 5 -40 9 -7 14 -19 11
-27 -3 -7 -3 -13 0 -13 2 0 8 10 13 23 8 21 9 21 25 -13 l16 -35 -5 32 c-16
111 -137 278 -284 395 -126 100 -254 153 -411 168 -108 11 -108 11 -210 -2z
m283 -39 c129 -20 303 -104 303 -146 0 -15 -5 -19 -21 -16 -11 3 -16 1 -10 -4
10 -8 20 -53 12 -53 -2 0 -17 6 -33 14 -153 74 -229 90 -393 83 -129 -6 -220
-24 -281 -56 -48 -26 -84 -36 -76 -22 5 7 -3 11 -23 11 -16 0 -33 -4 -36 -10
-3 -5 -14 -10 -23 -10 -11 1 -8 6 11 16 15 8 25 19 22 24 -7 12 -55 -12 -55
-28 0 -9 -7 -11 -20 -7 -11 3 -20 2 -20 -3 0 -6 -11 -13 -25 -16 -14 -4 -25
-13 -25 -21 0 -17 -9 -19 -30 -5 -12 7 -6 16 30 47 190 163 451 239 693 202z
m47 -172 c96 -52 160 -95 160 -109 0 -5 -28 9 -62 31 -35 21 -85 50 -113 65
-30 16 -42 26 -30 26 11 0 31 -6 45 -13z m-404 -23 c-20 -14 -75 -20 -62 -6
11 10 70 30 76 25 3 -3 -4 -11 -14 -19z m-172 -29 c-21 -16 -34 -19 -34 -7 0
8 42 30 49 25 3 -2 -4 -10 -15 -18z m467 -2 c18 -47 7 -55 -73 -52 -117 4
-122 8 -87 53 18 23 27 26 85 26 61 0 65 -2 75 -27z m399 3 c0 -2 -7 -7 -16
-10 -8 -3 -12 -2 -9 4 6 10 25 14 25 6z m-931 -47 c-34 -26 -47 -23 -18 4 13
13 28 21 33 19 5 -3 -2 -13 -15 -23z m-130 7 c15 -18 2 -27 -27 -19 -18 4 -20
8 -11 19 15 18 24 18 38 0z m-39 -44 c0 -7 -28 -20 -85 -40 -5 -2 1 4 15 14
14 11 28 18 33 16 4 -1 7 3 7 8 0 6 7 10 15 10 8 0 15 -4 15 -8z m706 -8 c-3
-9 -6 -24 -6 -35 0 -15 -7 -19 -35 -19 -37 0 -47 13 -17 25 16 6 16 7 0 16
-29 16 -21 25 23 26 33 2 40 -1 35 -13z m531 -26 c-3 -8 -6 -5 -6 6 -1 11 2
17 5 13 3 -3 4 -12 1 -19z m23 -80 c0 -10 5 -18 10 -18 6 0 10 -8 9 -17 0 -16
-1 -16 -12 1 -7 10 -29 40 -49 67 -21 27 -38 52 -38 56 0 16 79 -73 80 -89z
m-1350 43 c0 -5 -7 -11 -15 -15 -15 -5 -20 5 -8 17 9 10 23 9 23 -2z m50 -26
c0 -4 -7 -5 -15 -1 -8 3 -15 1 -15 -4 0 -6 -4 -10 -9 -10 -5 0 -4 11 2 24 9
19 14 21 24 10 7 -7 13 -16 13 -19z m820 -2 c0 -19 -3 -24 -10 -17 -6 6 -8 18
-4 27 9 24 14 21 14 -10z m-365 7 c3 -5 -1 -10 -10 -10 -9 0 -13 5 -10 10 3 6
8 10 10 10 2 0 7 -4 10 -10z m-282 -43 c10 -21 16 -44 13 -52 -10 -28 -116
-10 -116 19 0 15 63 77 74 73 5 -2 18 -20 29 -40z m1167 23 c0 -5 -4 -10 -10
-10 -5 0 -10 5 -10 10 0 6 5 10 10 10 6 0 10 -4 10 -10z m-444 -27 c-10 -10
-19 5 -10 18 6 11 8 11 12 0 2 -7 1 -15 -2 -18z m494 -27 c0 -3 -4 -8 -10 -11
-5 -3 -10 -1 -10 4 0 6 5 11 10 11 6 0 10 -2 10 -4z m-1027 -18 c-13 -6 -23
-15 -23 -20 0 -4 -6 -8 -14 -8 -8 0 -29 -12 -46 -26 -31 -27 -53 -27 -31 0 14
17 109 66 125 65 6 0 1 -5 -11 -11z m-178 -38 c14 -23 -27 -72 -81 -96 -67
-30 -79 -30 -98 -2 -27 38 -20 43 54 43 53 1 74 5 87 18 17 17 17 18 -1 11
-11 -4 -21 -2 -27 7 -6 10 -1 16 19 20 40 10 40 10 47 -1z m-301 -196 c3 -8 2
-12 -4 -9 -6 3 -10 10 -10 16 0 14 7 11 14 -7z m169 -86 c-35 -69 -71 -154
-79 -190 -5 -26 -7 -28 -18 -12 -19 25 12 121 69 213 23 37 27 41 41 41 11 0
8 -12 -13 -52z m-192 -251 c31 -23 46 -70 43 -131 -5 -98 -51 -146 -121 -127
-24 6 -27 12 -24 37 4 39 8 44 37 44 17 0 27 8 33 24 5 13 20 27 33 31 18 6 8
10 -44 17 l-68 10 0 43 c0 38 3 45 28 53 37 14 64 14 83 -1z m98 -272 c5 -33
12 -73 16 -90 5 -22 4 -26 -4 -15 -17 25 -44 138 -37 156 9 25 14 16 25 -51z
m-1803 -243 c-9 -9 -37 8 -31 18 5 8 11 7 21 -1 8 -6 12 -14 10 -17z m1791 1
c5 -14 -64 -63 -89 -63 -25 0 -22 22 5 47 36 33 76 41 84 16z m117 -125 c20
-24 47 -55 61 -71 28 -31 25 -48 -13 -89 -28 -30 -51 -35 -84 -17 -16 8 -23 8
-30 -2 -7 -11 -8 -9 -4 4 3 11 -1 26 -11 35 -15 15 -14 17 17 23 35 7 68 34
57 46 -4 4 -36 8 -70 9 l-62 1 0 33 c0 27 6 36 35 51 50 27 63 24 104 -23z
m-1721 -13 c38 -8 72 -14 75 -13 26 3 62 -4 62 -11 0 -11 -90 -5 -175 12 -33
6 -66 10 -72 9 -7 -2 -13 2 -13 8 0 14 42 12 123 -5z m-178 -16 c102 -26 300
-50 313 -37 5 5 31 4 62 -3 51 -11 161 -8 285 6 44 6 48 5 33 -8 -23 -18 -23
-27 -1 -27 13 0 14 -3 5 -12 -11 -11 -177 -3 -367 18 -45 5 -54 3 -90 -25 -60
-46 -81 -70 -101 -112 -19 -43 -25 -46 -44 -24 -9 11 -16 12 -25 5 -17 -14
-42 -3 -49 23 -3 12 -6 54 -6 94 0 60 -3 74 -19 82 -10 6 -21 8 -24 5 -3 -3
-16 1 -29 10 -21 15 -21 16 -3 16 11 0 38 -5 60 -11z m2092 -76 c-8 -7 -87 31
-87 42 0 25 14 23 51 -7 22 -17 38 -33 36 -35z m-747 47 c0 -5 -5 -10 -11 -10
-5 0 -7 5 -4 10 3 6 8 10 11 10 2 0 4 -4 4 -10z m-1595 -10 c-3 -5 -10 -10
-16 -10 -5 0 -9 5 -9 10 0 6 7 10 16 10 8 0 12 -4 9 -10z m2363 -63 c41 -11
57 -27 27 -27 -9 0 -12 -6 -9 -15 8 -21 -2 -19 -26 5 -26 26 -32 25 -70 -6
-17 -15 -33 -24 -35 -22 -3 2 4 24 16 47 15 32 24 41 37 36 9 -3 36 -11 60
-18z m612 -31 c0 -8 -9 -17 -20 -21 -11 -3 -27 -16 -37 -28 -21 -25 -170 -100
-177 -89 -13 22 72 76 102 65 7 -3 11 0 10 6 -4 14 81 79 105 80 9 1 17 -5 17
-13z m-515 -6 c-3 -5 -10 -10 -16 -10 -5 0 -9 5 -9 10 0 6 7 10 16 10 8 0 12
-4 9 -10z m-2808 -11 c9 -9 20 -9 40 -2 51 19 71 14 78 -17 7 -31 -3 -140 -13
-140 -3 0 -14 7 -24 17 -17 15 -18 15 -18 -2 0 -15 -3 -16 -12 -7 -29 29 -39
1 -11 -30 9 -11 11 -18 5 -18 -7 0 -12 5 -12 11 0 6 -7 9 -15 5 -10 -3 -17 3
-21 20 -6 21 -10 24 -39 18 -28 -5 -33 -3 -38 18 -9 30 -9 102 -1 122 7 19 64
22 81 5z m2890 -15 c3 -8 0 -21 -6 -27 -14 -14 -44 2 -49 27 -5 22 46 22 55 0z
m-187 -8 c0 -18 -27 -39 -40 -31 -5 3 -10 15 -10 26 0 14 7 19 25 19 15 0 25
-6 25 -14z m-610 -116 c0 -12 -8 -12 -35 0 -18 8 -17 9 8 9 15 1 27 -3 27 -9z
m-879 -41 c-6 -24 -9 -28 -10 -12 -1 24 9 56 16 50 2 -3 0 -20 -6 -38z m1425
26 c10 -8 14 -15 8 -15 -5 0 -19 7 -30 15 -10 8 -14 15 -8 15 5 0 19 -7 30
-15z m-1279 -17 c-3 -8 -6 -5 -6 6 -1 11 2 17 5 13 3 -3 4 -12 1 -19z m576 16
c9 -9 -4 -35 -14 -28 -5 3 -9 12 -9 20 0 14 12 19 23 8z m60 -35 c-7 -7 -20
-8 -30 -5 -17 7 -17 8 1 22 23 17 48 2 29 -17z m-115 -1 c-3 -7 -15 -15 -28
-16 -21 -3 -22 -2 -11 12 16 19 44 21 39 4z m-679 -60 c0 -18 -4 -42 -9 -53
-6 -15 -9 -6 -9 33 -1 28 4 52 9 52 6 0 10 -15 9 -32z m50 -12 c-9 -8 -10 -7
-5 7 3 10 7 24 7 30 1 7 3 4 6 -7 3 -10 -1 -23 -8 -30z m521 25 c0 -14 -18
-23 -30 -16 -6 4 -8 11 -5 16 8 12 35 12 35 0z m-410 -33 c0 -44 -12 -60 -36
-52 -26 10 -31 20 -26 54 4 25 9 30 33 30 26 0 29 -3 29 -32z m450 2 c0 -12
-40 -33 -48 -25 -4 4 2 13 12 21 23 16 36 18 36 4z m-1873 -32 c-3 -7 -5 -2
-5 12 0 14 2 19 5 13 2 -7 2 -19 0 -25z m162 -5 c0 -34 -1 -36 -11 -16 -6 12
-8 29 -5 37 11 27 17 18 16 -21z m1302 -16 c-8 -8 -11 -4 -11 14 0 33 14 47
18 19 2 -12 -1 -27 -7 -33z m-1133 29 c14 -5 22 -3 22 4 0 6 5 8 10 5 13 -8
13 -85 0 -105 -5 -8 -10 -10 -10 -5 0 6 -17 11 -37 12 -96 5 -98 6 -101 55
l-3 44 48 -2 c26 0 58 -4 71 -8z m-538 -11 c0 -8 -4 -15 -10 -15 -5 0 -10 7
-10 15 0 8 5 15 10 15 6 0 10 -7 10 -15z m1960 -10 c0 -8 -7 -15 -15 -15 -8 0
-15 7 -15 15 0 8 7 15 15 15 8 0 15 -7 15 -15z m620 -4 c0 -6 -5 -13 -10 -16
-15 -9 -43 3 -35 15 8 13 45 13 45 1z m-2709 -17 c68 -20 74 -26 49 -49 -13
-12 -20 -14 -20 -5 0 7 -7 10 -16 6 -9 -3 -33 -1 -54 5 -31 9 -37 16 -36 35 1
28 6 29 77 8z m2135 0 c-3 -9 -6 -18 -6 -20 0 -2 -7 -4 -15 -4 -13 0 -13 3 -3
20 15 24 33 27 24 4z m544 -24 c0 -6 -7 -10 -15 -10 -8 0 -15 2 -15 4 0 2 -3
12 -7 21 -5 15 -3 16 15 6 12 -7 22 -16 22 -21z m922 -35 c58 -11 73 -35 73
-119 -1 -53 -6 -81 -22 -112 -25 -47 -82 -99 -94 -87 -11 11 -211 -5 -224 -18
-7 -7 17 -8 73 -3 l82 7 0 -25 c0 -32 -22 -41 -69 -29 -20 6 -55 11 -79 13
-36 2 -46 7 -62 34 -31 50 -35 89 -14 150 31 91 120 169 221 193 21 5 47 8 58
6 11 -2 37 -7 57 -10z m-1556 -31 c-21 -21 -26 -16 -15 15 7 18 13 21 21 13 8
-8 6 -15 -6 -28z m-1816 -1 c0 -8 -4 -11 -10 -8 -5 3 -10 -2 -11 -12 0 -14 -2
-13 -10 5 -5 13 -7 28 -4 32 8 13 35 0 35 -17z m2510 12 c0 -8 -9 -15 -20 -15
-20 0 -26 11 -13 23 12 13 33 7 33 -8z m-2403 -17 c-3 -8 -6 -5 -6 6 -1 11 2
17 5 13 3 -3 4 -12 1 -19z m233 -19 c0 -5 -4 -9 -10 -9 -5 0 -10 7 -10 16 0 8
5 12 10 9 6 -3 10 -10 10 -16z m1179 -48 c-6 -2 -18 4 -27 13 -15 15 -15 15
10 4 15 -7 23 -15 17 -17z m-1709 -23 c0 -18 -2 -20 -9 -8 -6 8 -7 18 -5 22 9
14 14 9 14 -14z m2660 12 c0 -5 -5 -10 -11 -10 -5 0 -7 5 -4 10 3 6 8 10 11
10 2 0 4 -4 4 -10z m525 -30 c-15 -29 -35 -40 -35 -20 0 6 4 10 10 10 5 0 7 6
4 14 -3 8 2 16 13 19 10 3 19 5 21 6 1 0 -4 -12 -13 -29z m-3180 -29 c3 -5 1
-12 -5 -16 -5 -3 -10 1 -10 9 0 18 6 21 15 7z m3339 -270 c4 -5 -3 -7 -14 -4
-23 6 -26 13 -6 13 8 0 17 -4 20 -9z m141 -1 c-3 -5 -18 -10 -33 -9 l-27 1 25
8 c35 11 42 11 35 0z"/>
<path d="M3749 3665 c-3 -2 -21 -5 -42 -7 -22 -1 -37 -7 -37 -15 0 -15 56 -18
65 -3 4 6 11 8 16 5 5 -4 9 1 9 9 0 16 -3 19 -11 11z"/>
<path d="M2021 3356 c2 -2 36 -16 74 -31 39 -15 90 -42 115 -59 69 -49 69 -49
66 -23 -3 34 -14 46 -59 67 -62 29 -217 65 -196 46z"/>
<path d="M1855 3319 c-44 -5 -41 -6 30 -8 142 -2 253 -49 350 -146 65 -65 122
-164 151 -260 24 -81 24 -237 -1 -325 -40 -144 -139 -284 -242 -342 -30 -17
-52 -33 -49 -35 3 -3 29 9 59 26 111 63 205 189 248 331 32 106 32 256 0 360
-81 265 -304 428 -546 399z"/>
<path d="M1835 3281 c-3 -5 -1 -12 5 -16 13 -8 50 3 50 16 0 12 -47 12 -55 0z"/>
<path d="M1915 3250 c0 -38 2 -40 35 -46 119 -22 246 -126 304 -247 71 -151
70 -274 -6 -420 -121 -232 -352 -326 -550 -224 -133 68 -221 196 -248 360 -11
68 5 241 25 267 6 8 24 38 40 65 15 28 36 58 46 67 9 10 23 25 31 35 7 10 26
24 41 31 21 9 27 17 22 31 -6 19 18 47 33 37 5 -3 18 1 28 9 25 19 44 19 44 0
0 -8 6 -15 13 -15 22 0 38 16 32 32 -4 9 -2 19 4 23 17 10 13 25 -6 25 -33 0
-125 -40 -183 -80 -236 -160 -308 -511 -159 -770 26 -46 100 -130 114 -130 8
0 19 -9 25 -20 6 -11 18 -20 28 -20 13 1 10 7 -13 25 -23 19 -27 27 -17 37 9
9 12 9 12 0 0 -6 14 -19 31 -28 23 -11 28 -19 20 -27 -17 -17 -13 -25 19 -42
43 -22 58 -20 52 10 -5 30 8 33 26 5 16 -27 48 -26 55 2 10 37 18 13 11 -32
-7 -41 -8 -42 -38 -35 -90 19 -185 31 -179 22 3 -5 -1 -13 -8 -18 -9 -6 -2 -7
19 -3 24 5 38 2 52 -11 14 -12 28 -16 49 -12 16 4 31 2 33 -2 2 -5 46 -11 98
-14 86 -5 92 -4 65 8 -16 8 -40 14 -52 15 -27 0 -42 20 -15 20 21 0 40 32 23
38 -13 4 -15 32 -2 32 5 0 13 -9 16 -20 3 -11 10 -20 15 -20 22 0 40 14 40 31
0 10 7 19 15 19 10 0 15 -11 15 -35 0 -34 1 -35 28 -29 41 10 42 12 24 44 -21
36 -11 49 17 21 17 -17 25 -19 41 -11 22 12 26 30 9 47 -8 8 -7 13 1 18 14 9
27 -3 32 -29 4 -27 19 -29 48 -6 l25 19 -22 16 c-23 16 -31 45 -13 45 6 0 10
-4 10 -10 0 -16 18 -12 39 9 12 12 16 23 10 32 -22 35 10 41 33 7 l15 -23 17
32 c15 31 15 33 -5 43 -23 13 -20 36 5 32 18 -3 46 20 46 38 0 6 -7 13 -15 16
-18 7 -20 34 -2 34 7 0 18 -5 25 -12 15 -15 20 -10 24 26 2 22 -2 29 -15 32
-29 4 -34 14 -14 28 9 7 17 21 17 30 0 9 5 16 10 16 6 0 10 5 10 10 0 6 -9 10
-21 10 -14 0 -19 5 -17 18 2 11 11 16 26 14 19 -3 22 1 22 28 0 28 -3 30 -27
28 -25 -3 -28 0 -28 31 0 19 6 40 13 47 17 18 15 23 -8 17 -14 -4 -20 0 -20
11 0 10 8 16 21 16 18 0 20 4 14 27 -9 37 -12 39 -36 24 -12 -7 -22 -11 -23
-9 -18 23 -32 68 -23 77 7 7 3 8 -12 4 -28 -7 -29 22 0 38 l21 11 -23 24 c-22
23 -22 24 -36 4 -16 -23 -43 -27 -43 -6 0 8 -6 16 -12 19 -10 3 -10 9 0 26 16
27 15 32 -3 25 -8 -4 -15 -12 -15 -20 0 -8 -7 -14 -15 -14 -20 0 -19 24 1 45
15 15 15 17 -2 30 -26 20 -44 18 -44 -4 0 -23 -29 -49 -38 -35 -10 15 -44 27
-64 25 -21 -3 -23 11 -7 41 13 23 -1 38 -36 38 -18 0 -21 -6 -20 -40z m-380
-830 c13 -25 13 -30 1 -30 -20 0 -37 25 -30 44 8 22 11 21 29 -14z"/>
<path d="M2015 3260 c-3 -5 1 -10 10 -10 9 0 13 5 10 10 -3 6 -8 10 -10 10 -2
0 -7 -4 -10 -10z"/>
<path d="M2290 3250 c0 -5 5 -10 11 -10 5 0 7 5 4 10 -3 6 -8 10 -11 10 -2 0
-4 -4 -4 -10z"/>
<path d="M3980 3222 c-86 -28 -149 -70 -230 -152 -67 -67 -150 -193 -137 -206
2 -3 15 16 29 42 62 119 188 237 298 280 53 21 167 24 226 6 66 -19 147 -79
183 -133 18 -28 30 -55 27 -62 -3 -7 -8 -2 -11 11 -4 12 -12 22 -17 22 -5 0
-6 -9 -3 -20 4 -11 2 -20 -4 -20 -6 0 -11 9 -11 19 0 10 -7 21 -15 25 -10 4
-15 -1 -15 -15 0 -11 4 -18 9 -15 5 3 12 -1 15 -10 4 -9 13 -14 21 -10 10 4
15 -1 15 -14 0 -22 26 -28 33 -7 2 6 8 9 12 5 4 -4 -3 -21 -15 -38 -36 -50
-18 -44 43 15 56 55 57 56 42 84 -28 54 -114 138 -177 171 -58 32 -71 35 -163
37 -76 2 -113 -1 -155 -15z"/>
<path d="M1825 3220 c-3 -5 1 -10 9 -10 9 0 16 5 16 10 0 6 -4 10 -9 10 -6 0
-13 -4 -16 -10z"/>
<path d="M1870 3220 c0 -5 5 -10 11 -10 5 0 7 5 4 10 -3 6 -8 10 -11 10 -2 0
-4 -4 -4 -10z"/>
<path d="M2290 3211 c0 -6 5 -13 10 -16 6 -3 10 1 10 9 0 9 -4 16 -10 16 -5 0
-10 -4 -10 -9z"/>
<path d="M4915 3186 c-210 -69 -360 -245 -465 -547 -36 -103 -60 -152 -60
-121 0 9 -12 11 -37 7 -21 -3 -50 -6 -65 -5 -17 0 -28 -6 -32 -17 -14 -48 -26
-144 -26 -204 l0 -67 -46 -31 c-170 -112 -385 -99 -514 32 -71 72 -107 167
-121 317 l-8 85 4 -105 c4 -121 27 -200 88 -291 46 -70 85 -104 162 -145 113
-58 249 -53 385 16 34 17 63 30 65 28 1 -2 10 -17 18 -35 15 -28 23 -32 86
-43 l69 -11 22 -72 c64 -203 187 -349 338 -403 29 -10 52 -22 52 -25 0 -4 -17
-10 -37 -14 -71 -13 -118 -49 -175 -137 -54 -81 -68 -123 -68 -194 0 -124 70
-238 188 -306 49 -28 68 -33 142 -36 79 -4 92 -2 161 27 161 67 242 208 209
364 -9 46 -21 67 -63 113 -92 99 -186 138 -340 139 -48 0 -87 3 -87 8 0 4 12
7 28 7 26 1 89 29 65 30 -7 0 -13 6 -13 14 0 7 -29 28 -64 45 -92 45 -177 134
-226 235 -42 88 -59 146 -41 146 6 0 11 -4 11 -10 0 -5 5 -10 11 -10 12 0 2
58 -14 78 -7 9 -7 16 1 24 9 9 17 -1 32 -38 82 -193 143 -276 252 -341 94 -57
239 -64 331 -17 30 16 39 51 10 39 -82 -34 -142 -46 -200 -40 -186 19 -338
190 -388 433 -35 176 -11 432 55 578 117 260 344 410 541 359 80 -20 122 -45
187 -114 110 -113 172 -298 172 -508 l0 -93 34 16 c32 16 34 19 39 84 8 94 -8
221 -43 335 -59 192 -163 327 -309 397 -59 29 -76 32 -171 35 -67 2 -119 -2
-145 -11z m-388 -437 c-8 -19 -17 -43 -21 -53 -3 -10 -9 -17 -11 -14 -3 3 4
28 16 57 12 28 24 50 26 48 2 -2 -3 -19 -10 -38z m-43 -118 c-4 -17 -9 -30
-11 -27 -3 2 -2 19 2 36 9 41 17 33 9 -9z m312 -1206 c-10 -8 -23 -12 -29 -8
-11 7 12 23 33 23 12 -1 11 -4 -4 -15z m344 -150 c0 -9 -6 -12 -15 -9 -11 4
-15 0 -15 -16 0 -15 -4 -20 -15 -17 -8 4 -17 2 -20 -3 -4 -6 -14 -10 -23 -10
-12 0 -9 7 13 25 17 13 35 29 40 34 15 15 35 13 35 -4z m-129 -49 c-6 -7 -9
-21 -5 -30 3 -9 4 -23 0 -31 -4 -12 -10 -13 -31 -3 -19 9 -22 14 -14 25 14 16
14 16 -60 -3 -34 -8 -72 -14 -84 -12 -21 3 -21 4 6 22 42 28 97 45 151 46 40
0 46 -2 37 -14z m133 -80 c-24 -18 -29 -14 -12 13 8 13 16 17 22 11 6 -6 3
-15 -10 -24z m-29 -132 c-21 -25 -48 -49 -61 -54 -28 -11 -144 -11 -144 0 0 4
17 16 38 25 20 10 46 25 57 35 11 10 37 20 57 24 20 4 47 15 60 26 39 32 35
-5 -7 -56z m-95 41 c0 -3 -59 -35 -67 -35 -9 0 -1 22 14 39 12 15 21 18 35 10
10 -5 18 -11 18 -14z"/>
<path d="M1800 3099 c-97 -27 -171 -87 -211 -173 -16 -34 -29 -68 -28 -76 0
-10 2 -11 6 -2 2 6 9 12 14 12 4 0 7 -6 5 -12 -3 -7 -7 -33 -11 -58 -4 -34 -3
-42 5 -34 9 9 19 9 41 1 32 -12 35 -23 17 -62 -12 -28 -27 -32 -47 -12 -11 10
-12 2 -6 -43 9 -71 25 -108 65 -154 56 -64 112 -89 205 -94 93 -5 116 8 53 29
-65 21 -137 100 -170 187 -16 39 -28 89 -28 109 1 50 23 140 44 182 38 73 156
161 216 161 29 0 79 -27 118 -63 17 -17 32 -26 32 -21 0 6 -15 24 -32 40 -85
79 -191 109 -288 83z m-115 -359 c3 -5 1 -10 -4 -10 -6 0 -11 5 -11 10 0 6 2
10 4 10 3 0 8 -4 11 -10z"/>
<path d="M4320 3058 c0 -9 5 -20 10 -23 13 -8 13 5 0 25 -8 13 -10 13 -10 -2z"/>
<path d="M4965 3019 c-4 -6 -5 -13 -2 -16 7 -7 27 6 27 18 0 12 -17 12 -25 -2z"/>
<path d="M5145 3020 c3 -5 8 -10 11 -10 2 0 4 5 4 10 0 6 -5 10 -11 10 -5 0
-7 -4 -4 -10z"/>
<path d="M4250 3011 c0 -5 -8 -12 -17 -14 -11 -3 -7 -5 10 -6 18 -1 27 4 27
14 0 8 -4 15 -10 15 -5 0 -10 -4 -10 -9z"/>
<path d="M4967 2936 c-32 -14 -68 -33 -80 -42 -122 -101 -179 -188 -234 -354
-20 -60 -26 -103 -30 -210 -5 -119 -3 -145 17 -215 33 -117 48 -151 75 -163
15 -7 28 -25 34 -47 12 -44 47 -78 73 -69 30 9 56 -5 67 -36 9 -27 41 -43 41
-22 0 12 78 37 87 29 10 -10 -2 -18 -31 -21 -46 -5 -28 -21 23 -21 69 1 147
39 161 78 14 41 5 46 -24 14 -26 -28 -43 -36 -30 -15 5 8 0 9 -17 4 -58 -16
-116 -18 -157 -4 -99 34 -182 121 -220 232 -29 85 -38 166 -21 178 11 7 11 11
2 14 -8 4 -3 22 17 59 29 53 80 193 80 218 0 8 7 37 16 66 11 40 18 51 27 42
22 -22 36 -11 43 37 9 67 17 77 80 107 59 28 147 36 167 16 6 -6 19 -11 28
-11 25 0 113 -89 139 -140 26 -51 50 -126 50 -158 0 -23 -1 -23 -78 -17 -89 8
-93 6 -83 -60 6 -39 7 -40 50 -42 25 -2 47 -6 50 -11 3 -4 16 -7 29 -6 13 1
26 -4 28 -11 6 -14 -10 -131 -21 -160 -4 -12 5 -6 23 15 20 24 26 37 18 42
-11 8 -8 9 24 12 28 2 41 55 47 184 4 116 3 134 -21 211 -74 241 -259 355
-449 277z m-206 -297 c-23 -41 -41 -81 -41 -90 0 -9 -7 -22 -15 -29 -41 -34 6
93 62 168 40 53 37 31 -6 -49z m619 66 c0 -8 -4 -15 -10 -15 -5 0 -10 7 -10
15 0 8 5 15 10 15 6 0 10 -7 10 -15z m-507 -12 c-10 -30 -14 -34 -24 -27 -6 4
-3 14 7 25 21 24 25 24 17 2z"/>
<path d="M3165 2910 c-3 -5 -1 -10 4 -10 6 0 11 5 11 10 0 6 -2 10 -4 10 -3 0
-8 -4 -11 -10z"/>
<path d="M4790 2905 c-7 -9 -8 -15 -2 -15 5 0 12 7 16 15 3 8 4 15 2 15 -2 0
-9 -7 -16 -15z"/>
<path d="M5280 2906 c0 -2 7 -7 16 -10 8 -3 12 -2 9 4 -6 10 -25 14 -25 6z"/>
<path d="M5400 2770 c0 -5 5 -10 10 -10 6 0 10 5 10 10 0 6 -4 10 -10 10 -5 0
-10 -4 -10 -10z"/>
<path d="M4224 2700 c-6 -27 -8 -50 -5 -50 11 0 30 74 22 87 -4 8 -11 -7 -17
-37z"/>
<path d="M3556 2708 c-3 -13 -5 -32 -5 -43 1 -11 5 -2 10 19 10 42 6 62 -5 24z"/>
<path d="M2722 2593 c-30 -42 -28 -52 3 -18 15 15 24 32 22 38 -2 6 -13 -3
-25 -20z"/>
<path d="M2670 2450 c0 -5 5 -10 10 -10 6 0 10 5 10 10 0 6 -4 10 -10 10 -5 0
-10 -4 -10 -10z"/>
<path d="M5688 2353 c7 -3 16 -2 19 1 4 3 -2 6 -13 5 -11 0 -14 -3 -6 -6z"/>
<path d="M3178 2325 c-28 -62 41 -103 80 -47 28 39 12 72 -35 72 -26 0 -36 -6
-45 -25z m52 -9 c0 -3 -4 -8 -10 -11 -5 -3 -10 -1 -10 4 0 6 5 11 10 11 6 0
10 -2 10 -4z m30 -5 c0 -6 -5 -13 -10 -16 -6 -4 -8 -11 -5 -16 4 -5 1 -9 -5
-9 -7 0 -9 7 -6 16 3 9 6 20 6 25 0 5 5 9 10 9 6 0 10 -4 10 -9z"/>
<path d="M5590 2322 c-163 -80 -282 -220 -345 -407 -48 -145 -44 -331 11 -441
13 -27 21 -40 18 -29 -42 126 -45 151 -41 265 4 89 11 133 32 195 60 181 195
337 365 421 25 13 38 23 30 23 -8 0 -40 -12 -70 -27z"/>
<path d="M5755 2330 c-73 -24 -95 -34 -165 -81 -266 -177 -386 -568 -260 -851
41 -93 151 -210 224 -237 38 -15 32 -6 -18 23 -60 35 -139 125 -176 199 -97
198 -69 461 70 667 21 30 70 86 110 124 229 215 545 198 717 -39 18 -25 21
-26 16 -8 -3 12 -30 49 -60 82 -41 46 -74 70 -131 98 -68 32 -86 37 -171 40
-76 2 -109 -1 -156 -17z"/>
<path d="M5850 2278 c-111 -12 -203 -61 -307 -166 -81 -81 -100 -116 -68 -128
8 -4 22 -3 31 0 13 5 14 9 4 21 -18 21 12 64 50 72 17 3 30 12 30 19 0 20 74
66 93 58 12 -4 17 -1 17 10 0 9 4 16 9 16 6 0 23 13 38 29 15 16 35 30 43 31
37 5 60 -1 60 -15 0 -23 -30 -65 -46 -65 -8 0 -14 -7 -14 -15 0 -8 -4 -15 -10
-15 -5 0 -10 -7 -10 -15 0 -9 -7 -27 -16 -41 -13 -19 -14 -28 -5 -37 8 -8 15
-6 27 11 16 23 44 30 44 11 0 -6 -7 -23 -15 -37 -24 -43 -65 -143 -65 -158 0
-24 -20 -15 -21 9 -2 38 2 51 22 70 25 23 24 59 -1 82 -20 18 -20 17 -20 -13
0 -20 -5 -30 -12 -28 -7 1 -10 1 -5 -1 12 -8 8 -37 -10 -62 -12 -18 -14 -28
-5 -41 14 -23 3 -34 -16 -17 -13 10 -14 8 -10 -16 4 -19 0 -30 -11 -37 -14 -8
-14 -9 2 -15 22 -9 22 -43 0 -67 -9 -11 -11 -18 -5 -18 7 0 12 -9 12 -20 0
-14 -7 -20 -21 -20 -17 0 -19 -3 -11 -13 6 -7 9 -23 5 -35 -4 -16 -1 -22 11
-22 13 0 15 -11 13 -62 -2 -35 -7 -71 -12 -82 -7 -16 -5 -17 15 -11 20 7 22 5
16 -18 -3 -14 -2 -29 4 -32 5 -3 10 -17 10 -31 0 -13 6 -24 13 -24 27 0 50
-38 44 -70 -5 -22 -3 -30 8 -30 8 0 12 6 9 13 -3 8 2 20 11 27 12 10 18 10 30
0 8 -7 15 -19 15 -26 0 -7 6 -11 14 -8 7 3 16 -3 20 -12 8 -22 0 -30 -17 -16
-11 9 -16 6 -25 -13 -6 -14 -20 -25 -29 -25 -34 0 -94 21 -99 35 -3 7 -21 16
-40 19 -25 5 -35 13 -40 31 -3 14 -12 25 -19 25 -7 0 -23 12 -34 28 -19 25
-20 26 -21 5 0 -16 -5 -20 -19 -16 -21 5 -39 36 -43 73 -4 31 -18 32 -29 2 -7
-18 -2 -30 24 -58 63 -69 83 -85 147 -117 58 -28 74 -32 155 -32 88 0 181 21
212 49 28 25 40 32 69 44 17 8 49 30 71 50 107 99 173 235 203 417 19 121 -12
262 -82 367 -52 77 -82 105 -153 138 -78 37 -142 47 -235 38z m63 -43 c-3 -9
-8 -14 -10 -11 -3 3 -2 9 2 15 9 16 15 13 8 -4z m242 -65 c10 -11 14 -20 9
-20 -12 1 -44 25 -44 34 0 12 17 6 35 -14z m-45 -81 c0 -5 -7 -9 -15 -9 -9 0
-15 9 -15 21 0 18 2 19 15 9 8 -7 15 -16 15 -21z m131 -34 c12 -25 19 -48 16
-51 -7 -7 -47 60 -47 80 0 27 9 18 31 -29z m-291 -2 c54 -37 78 -71 90 -129
28 -132 -17 -375 -82 -450 -29 -32 -37 -35 -142 -48 -28 -4 -30 -19 -6 -49 17
-21 30 -27 61 -27 21 0 39 -3 39 -7 -1 -29 -53 -55 -85 -43 -47 18 -105 123
-105 190 0 14 -9 31 -20 38 -11 7 -20 21 -20 32 0 27 18 25 22 -2 2 -13 7 18
12 67 8 99 32 222 45 239 5 6 14 27 20 46 17 55 103 160 130 160 9 0 28 -8 41
-17z m206 -111 c9 -89 -1 -194 -27 -272 -26 -79 -34 -88 -49 -60 -10 18 -8 27
14 59 26 38 34 85 16 96 -15 9 -12 57 5 79 19 25 19 75 1 82 -23 9 -26 31 -11
61 8 15 15 35 15 43 1 12 4 11 15 -3 7 -11 17 -48 21 -85z m144 -90 c0 -28 -3
-33 -10 -22 -13 20 -13 73 0 65 6 -3 10 -23 10 -43z m-583 -54 c-3 -8 -6 -5
-6 6 -1 11 2 17 5 13 3 -3 4 -12 1 -19z m549 -145 c22 -22 -17 -133 -47 -133
-23 0 -25 36 -4 64 8 11 15 32 15 47 0 37 12 68 18 49 3 -8 11 -20 18 -27z
m-93 -193 c-3 -12 0 -20 6 -20 7 0 9 -5 5 -11 -4 -8 -9 -7 -15 2 -5 8 -9 10
-9 5 0 -11 -30 13 -30 24 0 7 16 14 42 19 3 0 4 -8 1 -19z m-142 -42 c-9 -25
-34 -38 -26 -14 3 9 7 23 10 32 3 8 9 13 14 9 6 -3 7 -15 2 -27z m49 22 c0 -5
-2 -10 -4 -10 -3 0 -8 5 -11 10 -3 6 -1 10 4 10 6 0 11 -4 11 -10z m25 -59
c15 -29 14 -30 -20 -56 -39 -31 -55 -26 -55 15 0 22 4 28 15 24 8 -4 15 -2 15
4 0 6 -5 12 -12 14 -17 6 0 28 22 28 11 0 26 -12 35 -29z"/>
<path d="M2397 2057 c-5 -32 15 -68 30 -53 4 4 2 11 -5 15 -8 5 -11 17 -7 33
4 14 2 29 -3 32 -5 3 -12 -9 -15 -27z"/>
<path d="M5171 1984 c-46 -45 -92 -65 -160 -71 -61 -6 -92 5 -161 55 l-35 25
30 -32 c71 -78 188 -99 288 -52 45 21 87 68 87 99 0 18 -11 13 -49 -24z"/>
<path d="M5536 2011 c-4 -7 -5 -15 -2 -18 9 -9 19 4 14 18 -4 11 -6 11 -12 0z"/>
<path d="M2386 1985 c-3 -9 0 -15 9 -15 16 0 20 16 6 24 -5 3 -11 -1 -15 -9z"/>
<path d="M5618 1993 c7 -3 16 -2 19 1 4 3 -2 6 -13 5 -11 0 -14 -3 -6 -6z"/>
<path d="M5430 1917 c-41 -20 -37 -117 5 -117 20 0 19 7 -5 32 -26 28 -25 44
1 59 25 13 79 23 79 14 0 -3 -7 -19 -15 -35 -9 -18 -13 -40 -9 -55 8 -34 13
-28 28 38 13 54 12 55 -11 66 -30 14 -42 14 -73 -2z"/>
<path d="M1330 1906 c-19 -7 -36 -20 -38 -29 -4 -20 -3 -20 54 -6 32 8 44 16
44 30 0 22 -11 23 -60 5z"/>
<path d="M1385 1790 c-11 -5 -39 -14 -62 -20 -30 -7 -43 -16 -43 -28 0 -9 -3
-27 -6 -39 -5 -19 -2 -23 15 -23 23 0 27 10 10 27 -18 18 -3 30 66 48 36 10
64 23 62 28 -5 15 -19 17 -42 7z"/>
<path d="M5405 1729 c-10 -14 -1 -21 19 -13 9 3 13 10 10 15 -7 12 -21 11 -29
-2z"/>
<path d="M4063 1723 c-18 -6 -16 -33 1 -33 19 0 31 19 20 30 -5 4 -15 5 -21 3z"/>
<path d="M446 1647 c-11 -34 -20 -82 -22 -107 -3 -48 -3 -48 28 78 24 98 20
118 -6 29z"/>
<path d="M3992 1674 c-2 -41 15 -81 29 -67 5 5 2 28 -7 53 -20 57 -20 57 -22
14z"/>
<path d="M4160 1696 c0 -10 9 -16 21 -16 24 0 21 23 -4 28 -10 2 -17 -3 -17
-12z"/>
<path d="M5471 1676 c-12 -14 -4 -76 10 -76 5 0 9 20 9 45 0 49 -2 52 -19 31z"/>
<path d="M4260 1650 c0 -5 5 -10 10 -10 6 0 10 5 10 10 0 6 -4 10 -10 10 -5 0
-10 -4 -10 -10z"/>
<path d="M5386 1646 c6 -16 53 -50 59 -44 2 2 -11 16 -30 31 -19 15 -32 21
-29 13z"/>
<path d="M5130 1600 c-9 -6 -10 -10 -3 -10 6 0 15 5 18 10 8 12 4 12 -15 0z"/>
<path d="M5055 1576 c-23 -7 -35 -15 -29 -19 11 -6 84 18 84 28 0 7 -8 5 -55
-9z"/>
<path d="M5405 1549 c-10 -15 3 -25 16 -12 7 7 7 13 1 17 -6 3 -14 1 -17 -5z"/>
<path d="M436 1488 c-3 -17 -2 -36 4 -42 12 -12 17 -7 20 19 6 59 -13 78 -24
23z"/>
<path d="M5477 1503 c-4 -6 0 -24 8 -39 15 -30 18 -18 6 26 -4 15 -10 20 -14
13z"/>
<path d="M495 1470 c28 -12 37 -12 30 0 -3 6 -16 10 -28 9 -21 0 -21 -1 -2 -9z"/>
<path d="M1362 1458 c-18 -18 -14 -31 8 -25 11 3 20 1 20 -4 0 -5 9 -9 20 -9
24 0 110 -39 110 -50 0 -4 8 -11 17 -14 14 -6 12 -2 -5 17 -12 13 -22 35 -22
49 0 14 -7 32 -17 39 -15 13 -16 11 -11 -14 5 -23 3 -27 -11 -21 -9 4 -29 9
-46 11 -16 3 -35 11 -41 19 -8 10 -13 11 -22 2z"/>
<path d="M1217 1433 c-56 -19 -56 -29 0 -14 21 6 55 11 76 11 20 0 37 5 37 10
0 15 -58 11 -113 -7z"/>
<path d="M417 1408 c-5 -37 0 -58 15 -58 5 0 8 6 7 13 -1 6 1 20 5 30 9 19 1
47 -13 47 -5 0 -11 -15 -14 -32z"/>
<path d="M5460 1430 c0 -5 5 -10 11 -10 5 0 7 5 4 10 -3 6 -8 10 -11 10 -2 0
-4 -4 -4 -10z"/>
<path d="M1120 1383 c-14 -9 -40 -30 -59 -47 -29 -27 -32 -28 -21 -8 11 22 10
23 -8 13 -15 -8 -21 -8 -24 1 -2 6 -20 -9 -41 -33 -38 -47 -62 -129 -37 -129
7 0 10 -8 7 -20 -3 -11 -2 -18 3 -15 11 7 20 -32 20 -92 0 -61 7 -83 26 -83
17 0 19 65 3 76 -15 9 -5 105 15 146 9 17 16 37 16 45 0 25 57 98 99 127 23
16 41 30 41 32 0 8 -16 2 -40 -13z"/>
<path d="M1188 1376 c-21 -12 -36 -25 -33 -28 3 -2 -14 -25 -36 -49 -23 -24
-55 -73 -72 -109 -25 -54 -31 -82 -35 -162 -3 -69 -1 -98 7 -98 6 0 11 -5 11
-12 0 -6 10 -22 22 -35 22 -23 12 -33 -10 -11 -17 17 -14 -3 3 -26 8 -11 20
-16 30 -12 10 3 37 -6 63 -22 42 -24 57 -27 137 -27 100 0 139 15 223 83 49
40 115 54 126 27 7 -18 -5 -20 -22 -3 -6 6 -14 9 -17 6 -9 -9 26 -39 39 -35
12 5 14 73 2 103 -8 19 -8 19 -16 -1 -7 -16 -9 -12 -9 18 -1 26 5 44 18 55 25
22 57 158 41 177 -6 7 -24 18 -40 25 -31 13 -37 24 -20 35 6 4 8 11 4 16 -4 6
-11 6 -19 -1 -11 -9 -17 -6 -30 13 -8 13 -46 40 -82 58 -84 42 -172 47 -240
13 -48 -24 -58 -18 -15 8 15 10 23 17 17 17 -5 0 -27 -10 -47 -23z m202 -31
c23 -12 20 -13 -37 -8 -55 5 -69 2 -120 -23 -32 -15 -66 -37 -75 -48 -13 -16
-17 -17 -17 -6 -1 21 30 56 54 63 11 3 38 13 60 21 50 19 102 19 135 1z m24
-51 c20 -10 36 -26 39 -40 4 -24 -9 -23 -48 3 -11 7 -31 13 -45 12 -22 -1 -23
-2 -5 -8 71 -24 125 -88 125 -148 0 -36 -13 -43 -29 -15 -6 9 -11 13 -11 8 0
-5 -6 -3 -14 3 -12 10 -16 8 -22 -11 -4 -13 -23 -43 -43 -67 -27 -34 -31 -42
-14 -33 22 12 81 17 70 6 -7 -8 17 -34 32 -34 6 0 11 6 11 12 0 7 7 2 16 -10
15 -22 15 -25 -6 -48 -44 -46 -104 -68 -179 -65 l-24 1 23 20 c13 11 32 20 42
20 11 0 17 4 13 9 -3 5 -20 7 -39 4 -68 -11 -146 51 -165 133 -5 21 -9 31 -10
22 -1 -23 -20 -23 -28 -2 -13 35 47 165 92 199 58 44 158 57 219 29z m-348
-233 c0 -38 -4 -67 -8 -65 -15 10 -9 134 7 134 0 0 1 -31 1 -69z m49 -151 c3
-5 1 -10 -4 -10 -6 0 -11 5 -11 10 0 6 2 10 4 10 3 0 8 -4 11 -10z m30 -31
c11 -17 -1 -21 -15 -4 -8 9 -8 15 -2 15 6 0 14 -5 17 -11z m245 -39 c-8 -6
-22 -10 -30 -10 -8 0 -4 6 10 13 27 15 44 12 20 -3z m-170 -6 c0 -2 -7 -4 -15
-4 -8 0 -15 4 -15 10 0 5 7 7 15 4 8 -4 15 -8 15 -10z m100 -8 c8 -2 -9 -4
-37 -5 -29 0 -53 3 -53 7 0 7 52 6 90 -2z"/>
<path d="M530 1360 c0 -5 7 -10 16 -10 8 0 12 5 9 10 -3 6 -10 10 -16 10 -5 0
-9 -4 -9 -10z"/>
<path d="M3263 1323 c-18 -19 -33 -37 -33 -40 0 -10 61 39 70 58 16 29 -1 21
-37 -18z"/>
<path d="M1855 1340 c-18 -10 -18 -10 4 -6 35 7 131 -13 169 -34 17 -11 32
-15 32 -11 0 15 -86 50 -136 55 -27 3 -58 1 -69 -4z"/>
<path d="M2433 1313 c9 -2 23 -2 30 0 6 3 -1 5 -18 5 -16 0 -22 -2 -12 -5z"/>
<path d="M1843 1289 c-67 -26 -144 -108 -172 -184 -40 -107 -21 -227 45 -289
87 -80 209 -64 325 45 112 105 131 252 47 372 -45 64 -158 91 -245 56z m146
-77 c49 -24 69 -65 70 -137 0 -136 -71 -227 -189 -242 -46 -5 -98 22 -128 67
-22 32 -24 43 -19 113 6 90 38 155 96 194 42 28 119 30 170 5z"/>
<path d="M1910 1177 c27 -22 3 -140 -38 -189 -13 -16 -12 -17 15 -9 19 6 43 4
67 -4 45 -16 64 -11 76 19 9 24 -3 114 -20 145 -13 25 -61 51 -92 51 -20 -1
-21 -2 -8 -13z"/>
<path d="M1780 922 c0 -14 33 -40 60 -47 15 -4 33 0 45 9 19 15 18 15 -20 16
-22 0 -51 7 -63 16 -12 8 -22 11 -22 6z"/>
<path d="M2270 1281 c-72 -39 -92 -83 -69 -150 11 -31 49 -63 49 -41 0 5 -4
10 -8 10 -12 0 -32 47 -32 75 0 30 54 93 86 101 13 3 24 10 24 15 0 13 -10 11
-50 -10z"/>
<path d="M6247 1285 c-139 -38 -237 -127 -320 -291 -14 -28 -33 -88 -43 -134
-66 -327 135 -607 434 -604 109 1 109 19 -1 20 -114 1 -181 28 -263 106 -68
64 -95 110 -124 207 -19 61 -22 89 -17 170 12 220 116 388 296 479 61 30 88
37 148 40 40 3 70 8 67 13 -8 13 -121 9 -177 -6z"/>
<path d="M2684 1282 c-5 -4 -10 -15 -12 -24 -2 -13 4 -18 23 -18 14 0 25 -4
25 -10 0 -5 6 -10 14 -10 8 0 16 -7 20 -15 8 -21 23 -19 29 4 3 11 -2 26 -12
34 -27 24 -77 46 -87 39z"/>
<path d="M3010 1255 c7 -9 15 -13 17 -11 7 7 -7 26 -19 26 -6 0 -6 -6 2 -15z"/>
<path d="M3197 1259 c7 -7 15 -10 18 -7 3 3 -2 9 -12 12 -14 6 -15 5 -6 -5z"/>
<path d="M2418 1247 c-12 -10 -14 -25 -9 -75 4 -35 3 -66 -1 -68 -11 -7 -15 9
-22 75 -3 30 -9 58 -14 63 -4 4 -23 -1 -42 -11 -30 -16 -35 -23 -35 -56 0 -50
31 -73 111 -81 76 -8 148 19 164 62 14 36 6 55 -35 82 -29 18 -39 20 -56 12
-14 -8 -24 -8 -33 -1 -9 8 -17 7 -28 -2z"/>
<path d="M1670 1230 c0 -5 5 -10 11 -10 5 0 7 5 4 10 -3 6 -8 10 -11 10 -2 0
-4 -4 -4 -10z"/>
<path d="M321 1206 c-23 -24 -23 -45 -1 -159 10 -49 10 -71 3 -78 -8 -8 -15
-3 -26 16 l-14 28 -7 -37 c-4 -20 -11 -34 -16 -31 -5 3 -10 -9 -12 -27 -4 -33
-7 -30 -24 20 -5 14 -8 12 -21 -12 -13 -25 -13 -35 1 -92 9 -35 27 -89 41
-120 14 -31 25 -63 25 -70 0 -8 4 -14 9 -14 5 0 9 -13 9 -30 -1 -16 -2 -30 -4
-30 -8 0 -85 110 -116 165 -54 95 -72 145 -79 220 -6 58 -6 53 -3 -29 2 -55 8
-104 14 -110 5 -5 10 -16 10 -23 0 -46 54 -117 191 -253 166 -165 158 -158
241 -207 52 -31 73 -37 120 -37 84 -1 74 -18 -17 -29 -26 -3 -25 -4 8 -6 21 0
48 4 60 10 31 17 79 68 73 78 -7 11 -79 -13 -84 -28 -11 -34 -145 14 -225 80
-33 28 -113 136 -105 144 2 2 23 -9 47 -26 61 -41 113 -52 204 -46 70 5 84 2
128 -20 77 -38 112 -41 143 -10 35 35 34 65 -1 73 -42 8 -80 26 -67 31 6 2 29
0 51 -5 47 -11 68 1 78 41 7 27 -11 123 -26 143 -5 6 -15 47 -23 91 -15 85
-39 142 -80 185 -27 28 -109 88 -121 88 -4 0 -32 23 -62 50 -82 75 -112 87
-215 88 -76 0 -89 -3 -107 -22z m109 -25 c0 -10 3 -39 6 -65 6 -38 4 -46 -10
-46 -13 0 -16 11 -16 65 0 37 4 65 10 65 6 0 10 -8 10 -19z m208 -241 c8 -14
23 -20 46 -20 48 0 76 -37 76 -101 0 -42 -3 -49 -20 -49 -17 0 -20 7 -20 50 0
40 -4 51 -21 60 -23 13 -216 7 -230 -7 -4 -4 -9 -24 -11 -43 -2 -24 -9 -36
-20 -38 -15 -3 -18 4 -18 40 0 61 21 88 70 88 29 0 42 5 50 20 8 15 21 20 48
20 26 0 41 -6 50 -20z m-22 -118 c43 -29 30 -94 -20 -100 -31 -4 -66 21 -66
47 0 43 53 76 86 53z m-156 -115 c0 -35 19 -47 77 -47 46 0 53 -3 53 -20 0
-18 -7 -20 -65 -20 -78 0 -105 19 -105 75 0 28 4 35 20 35 14 0 20 -7 20 -23z
m451 -30 c-8 -8 -11 -4 -11 14 0 33 14 47 18 19 2 -12 -1 -27 -7 -33z m-176
13 c14 -44 -44 -69 -65 -29 -9 15 -8 24 1 35 18 21 57 18 64 -6z"/>
<path d="M2830 1216 c0 -12 9 -16 35 -16 19 0 35 5 35 10 0 6 -6 10 -12 10 -7
0 -23 3 -35 6 -17 5 -23 2 -23 -10z"/>
<path d="M3300 1223 c0 -12 87 -93 99 -93 6 0 13 -11 17 -25 3 -14 12 -29 18
-33 7 -4 22 -21 34 -39 16 -22 19 -32 10 -36 -10 -3 -10 -7 0 -19 15 -18 52
-30 52 -17 0 5 4 9 10 9 5 0 7 -7 4 -15 -5 -11 -2 -13 11 -8 15 5 17 2 12 -23
-3 -16 -4 -23 -1 -16 8 17 24 5 24 -18 0 -10 7 -21 16 -24 9 -4 14 -13 10 -21
-3 -8 -1 -15 4 -15 6 0 10 -11 10 -24 0 -14 5 -37 10 -51 11 -29 3 -78 -11
-69 -5 3 -9 -2 -9 -10 0 -9 -4 -16 -10 -16 -5 0 -10 -8 -10 -18 0 -10 -14 -26
-31 -36 -26 -15 -44 -18 -100 -13 -37 3 -78 11 -90 17 -19 11 -25 8 -45 -16
-13 -16 -23 -32 -24 -36 0 -4 22 -14 48 -22 69 -20 130 -53 142 -76 8 -16 6
-26 -11 -49 -12 -16 -19 -33 -15 -39 9 -15 57 -21 83 -9 29 13 61 59 45 65 -7
2 -12 18 -12 35 0 21 -10 41 -32 64 -29 30 -30 33 -12 39 99 31 128 75 120
178 -4 54 -14 89 -46 154 -35 74 -55 100 -148 191 -98 97 -172 154 -172 134z
m240 -713 c25 -25 25 -42 0 -71 -22 -28 -23 -26 -11 19 5 17 7 32 3 32 -4 0
-13 9 -20 20 -7 12 -8 20 -2 20 5 0 19 -9 30 -20z"/>
<path d="M2920 1211 c0 -5 5 -13 10 -16 6 -3 10 -2 10 4 0 5 -4 13 -10 16 -5
3 -10 2 -10 -4z"/>
<path d="M3060 1201 c0 -20 -32 -46 -43 -35 -12 12 -126 -78 -155 -122 -17
-26 -72 -142 -72 -151 0 -5 19 25 41 66 43 77 127 171 153 171 8 0 17 6 19 13
4 7 8 3 13 -11 l7 -23 11 22 c6 12 17 24 25 27 11 4 12 -2 6 -24 -32 -129 -8
-192 148 -379 18 -22 29 -27 37 -19 8 8 2 17 -21 35 -34 26 -94 110 -122 172
-24 53 -22 143 3 185 22 35 23 33 -27 48 -7 2 -10 10 -7 18 3 8 1 17 -5 21 -7
3 -11 -2 -11 -14z"/>
<path d="M6307 1209 c-92 -22 -199 -94 -190 -129 3 -11 -2 -26 -11 -35 -8 -9
-18 -32 -21 -53 -4 -20 -10 -47 -16 -60 -5 -13 -9 -38 -9 -56 0 -31 3 -35 38
-43 32 -8 37 -12 37 -38 0 -29 -1 -30 -48 -27 -54 3 -48 21 -52 -163 l-2 -110
51 -50 c80 -80 131 -100 251 -100 97 0 102 1 167 38 212 119 300 412 192 642
-10 22 -43 65 -74 96 -83 84 -196 116 -313 88z m105 -66 c9 -11 9 -16 -2 -23
-11 -7 -11 -12 -2 -23 10 -11 9 -17 -1 -26 -8 -6 -17 -7 -21 -3 -4 4 -14 -2
-21 -12 -13 -17 -18 -17 -47 -6 -52 21 -55 28 -23 54 26 21 31 22 40 9 10 -13
15 -13 33 -2 29 18 28 27 -4 35 -17 4 -22 9 -14 14 16 10 46 2 62 -17z m48 2
c7 -9 10 -18 7 -21 -10 -11 -37 5 -37 21 0 19 14 19 30 0z m-236 -28 c15 -11
17 -17 7 -35 -13 -25 -31 -29 -31 -7 0 8 5 15 12 15 6 0 3 9 -7 20 -20 23 -8
27 19 7z m-54 -48 c0 -11 -4 -17 -10 -14 -5 3 -10 13 -10 21 0 8 5 14 10 14 6
0 10 -9 10 -21z m270 -28 c0 -6 -4 -12 -9 -16 -6 -3 -9 -14 -8 -24 2 -28 -25
-101 -35 -95 -4 3 -3 15 3 26 6 12 11 43 10 70 0 42 2 48 19 48 11 0 20 -4 20
-9z m-90 -46 c0 -8 -4 -15 -10 -15 -5 0 -10 -4 -10 -10 0 -5 7 -10 15 -10 19
0 19 -14 -1 -31 -11 -9 -18 -10 -22 -2 -4 6 -23 13 -42 15 -28 2 -36 8 -38 26
-3 19 0 23 15 20 10 -2 17 -11 15 -21 -2 -11 4 -17 18 -17 13 0 20 7 20 20 0
11 5 20 11 20 5 0 7 5 4 10 -3 6 -17 10 -31 10 -25 0 -33 15 -11 23 18 6 67
-21 67 -38z m213 -7 c24 -83 29 -140 16 -215 -12 -72 -67 -199 -100 -229 -21
-19 -38 -12 -22 8 34 44 75 265 73 393 -2 98 -2 95 9 95 4 0 15 -24 24 -52z
m117 -2 c0 -5 -7 -1 -15 10 -8 10 -14 24 -14 29 0 6 6 1 14 -9 8 -11 15 -24
15 -30z m-525 -36 c3 -5 -1 -10 -9 -10 -9 0 -16 5 -16 10 0 6 4 10 9 10 6 0
13 -4 16 -10z m-45 -50 c0 -11 6 -20 14 -20 7 0 16 9 19 20 6 25 27 26 27 2 0
-37 -51 -57 -78 -30 -17 17 -15 48 3 48 8 0 15 -9 15 -20z m136 5 c18 -14 18
-14 -4 -15 -13 0 -21 4 -18 9 4 5 0 12 -6 14 -7 3 -8 6 -2 6 5 1 19 -6 30 -14z
m-2 -33 c37 -16 28 -25 -17 -17 -28 6 -34 10 -29 27 2 11 8 16 11 11 3 -5 19
-14 35 -21z m141 -4 c-22 -97 -29 -158 -29 -257 0 -115 -6 -121 -23 -22 -7 39
-6 73 3 123 7 39 13 73 12 76 -1 6 5 35 19 85 7 25 24 21 18 -5z m-148 -44
c-3 -3 -12 -4 -19 -1 -8 3 -5 6 6 6 11 1 17 -2 13 -5z m59 -15 c3 -6 0 -15 -7
-20 -11 -7 -10 -11 4 -22 24 -17 8 -32 -45 -42 -32 -6 -38 -4 -53 19 -17 26
-15 56 5 56 6 0 15 -12 20 -26 10 -26 30 -25 30 2 0 8 5 14 10 14 6 0 10 7 10
15 0 18 16 20 26 4z m-216 -103 c0 -7 6 -19 14 -25 12 -10 15 -8 18 9 4 28 22
31 26 4 4 -29 -20 -46 -53 -38 -29 7 -40 25 -31 49 7 19 26 20 26 1z m192 -60
c5 -56 1 -69 -13 -45 -10 19 -59 41 -80 37 -8 -2 -14 3 -13 10 1 6 2 20 3 30
1 13 11 17 50 18 l49 0 4 -50z m-158 -58 c9 -12 14 -24 12 -26 -5 -4 -46 35
-46 43 0 13 20 3 34 -17z m89 -8 c7 -27 23 -25 31 3 6 21 7 21 20 5 7 -10 18
-18 25 -18 30 0 -4 -40 -36 -42 -53 -4 -90 23 -77 57 9 22 31 18 37 -5z m-113
-12 c0 -6 -6 -5 -15 2 -8 7 -15 14 -15 16 0 2 7 1 15 -2 8 -4 15 -11 15 -16z
m30 -53 c21 7 28 -9 9 -20 -18 -12 -59 4 -59 24 0 28 13 34 22 11 6 -16 13
-20 28 -15z m180 -55 c0 -5 -2 -10 -4 -10 -3 0 -8 5 -11 10 -3 6 -1 10 4 10 6
0 11 -4 11 -10z m-71 -27 c8 -14 12 -15 25 -4 24 20 86 6 86 -19 0 -21 -15
-27 -25 -10 -5 8 -11 7 -21 -1 -11 -9 -18 -9 -26 -1 -7 7 -25 12 -40 12 -21 0
-28 5 -28 20 0 24 16 26 29 3z"/>
<path d="M3145 1188 c1 -13 6 -22 11 -20 8 2 9 7 6 32 -4 21 -19 9 -17 -12z"/>
<path d="M3242 1198 c-7 -7 -12 -16 -12 -22 0 -6 5 -5 12 2 7 7 23 12 36 12
13 0 20 4 17 10 -8 14 -38 13 -53 -2z"/>
<path d="M2966 1192 c-3 -6 -1 -14 5 -17 15 -10 25 3 12 16 -7 7 -13 7 -17 1z"/>
<path d="M2245 1160 c8 -29 57 -76 89 -84 19 -5 19 -4 -4 14 -14 11 -28 20
-32 20 -4 0 -19 17 -34 38 -21 30 -24 32 -19 12z"/>
<path d="M2601 1163 c0 -12 -11 -29 -23 -37 -12 -9 -20 -18 -17 -20 2 -3 15 3
28 13 16 12 22 25 18 42 -4 22 -4 22 -6 2z"/>
<path d="M2643 1133 l-11 -38 19 24 c19 23 25 51 11 51 -4 0 -12 -17 -19 -37z"/>
<path d="M4355 1134 c-17 -13 -34 -24 -40 -24 -5 0 -10 -18 -10 -40 0 -35 3
-40 22 -40 27 0 56 40 47 64 -3 9 -2 16 4 16 11 0 23 38 14 44 -4 2 -21 -7
-37 -20z"/>
<path d="M2175 1120 c3 -19 6 -45 7 -58 0 -17 4 -21 18 -17 17 5 33 -8 36 -30
0 -5 2 -16 2 -22 1 -7 9 -13 17 -13 8 0 15 -7 15 -15 0 -17 -12 -19 -26 -5 -7
7 -10 2 -9 -15 0 -14 10 -31 23 -40 25 -18 29 -11 7 12 -23 23 -9 29 16 7 l21
-19 -3 40 c-3 23 -12 48 -24 59 -13 12 -15 17 -5 14 55 -19 59 -19 57 0 0 11
-6 18 -12 16 -18 -7 -104 53 -126 88 l-21 33 7 -35z"/>
<path d="M2681 1140 c-2 -21 -39 -62 -81 -88 -44 -27 -23 -29 30 -2 44 23 63
50 57 83 -2 12 -5 15 -6 7z"/>
<path d="M2880 1142 c0 -12 19 -26 26 -19 2 2 -2 10 -11 17 -9 8 -15 8 -15 2z"/>
<path d="M233 1112 c-17 -15 -41 -34 -54 -43 l-22 -15 18 -54 c17 -50 19 -52
27 -30 6 16 5 26 -1 28 -26 9 8 57 43 63 20 4 42 58 28 71 -4 3 -21 -5 -39
-20z"/>
<path d="M2830 1131 c0 -11 31 -24 39 -16 3 3 -1 10 -9 15 -19 12 -30 12 -30
1z"/>
<path d="M3226 1132 c-3 -6 -1 -14 5 -17 15 -10 25 3 12 16 -7 7 -13 7 -17 1z"/>
<path d="M3307 1114 c-13 -13 -7 -19 18 -20 16 -1 24 3 22 10 -4 13 -30 20
-40 10z"/>
<path d="M3001 1068 c0 -16 2 -18 6 -8 3 8 11 18 17 22 7 5 4 8 -6 8 -12 0
-18 -7 -17 -22z"/>
<path d="M3270 1048 c0 -7 5 -20 10 -28 8 -12 10 -9 10 13 0 15 -4 27 -10 27
-5 0 -10 -6 -10 -12z"/>
<path d="M3607 1018 c8 -43 46 -103 77 -124 35 -22 165 -66 176 -59 18 11 11
25 -12 25 -40 1 -125 34 -121 48 3 6 0 12 -5 12 -6 0 -12 -4 -14 -9 -4 -13
-29 8 -58 49 l-24 34 26 -19 c15 -11 28 -24 28 -28 0 -5 5 -5 10 -2 6 3 10 0
10 -8 0 -10 7 -13 19 -10 10 2 26 -3 35 -12 9 -10 20 -15 23 -11 10 10 -17 34
-45 41 -27 6 -112 79 -112 96 0 5 -4 9 -10 9 -5 0 -7 -14 -3 -32z"/>
<path d="M2770 1032 c0 -5 7 -13 16 -16 10 -4 14 -1 12 6 -5 15 -28 23 -28 10z"/>
<path d="M3430 1031 c0 -6 4 -13 10 -16 6 -3 7 1 4 9 -7 18 -14 21 -14 7z"/>
<path d="M2191 1016 c-10 -11 -9 -22 5 -48 10 -19 19 -27 22 -20 2 7 -2 19 -9
28 -9 11 -9 18 -1 26 7 7 12 16 12 20 0 13 -17 9 -29 -6z"/>
<path d="M3345 980 c3 -5 13 -10 21 -10 8 0 12 5 9 10 -3 6 -13 10 -21 10 -8
0 -12 -4 -9 -10z"/>
<path d="M2742 958 c5 -15 28 -23 28 -10 0 5 -7 13 -16 16 -10 4 -14 1 -12 -6z"/>
<path d="M3303 930 c0 -25 2 -35 4 -22 2 12 2 32 0 45 -2 12 -4 2 -4 -23z"/>
<path d="M980 942 c0 -15 39 -59 40 -44 0 6 -4 12 -10 12 -5 0 -10 6 -10 14 0
8 -4 18 -10 21 -5 3 -10 2 -10 -3z"/>
<path d="M3823 903 c9 -2 23 -2 30 0 6 3 -1 5 -18 5 -16 0 -22 -2 -12 -5z"/>
<path d="M5242 896 c-109 -36 -191 -100 -223 -174 -22 -50 -23 -63 -8 -114 7
-27 15 -38 29 -38 11 0 20 -4 20 -10 0 -16 85 -96 122 -115 80 -41 151 -57
251 -56 54 0 103 3 108 7 5 3 16 0 24 -6 8 -6 24 -9 37 -5 22 6 22 5 -2 -9
-29 -18 -66 -23 -40 -6 13 9 13 10 -1 10 -8 0 -24 -7 -35 -15 -22 -17 -74 -20
-74 -4 0 5 -4 8 -10 4 -5 -3 -6 -13 -3 -22 5 -14 -5 -15 -93 -11 -54 3 -108 8
-119 12 -11 3 -2 -2 20 -13 87 -43 241 -36 343 15 74 37 125 90 145 154 19 57
22 156 7 180 -9 13 -10 13 -10 0 0 -13 -1 -13 -10 0 -6 9 -5 17 2 21 16 10
-43 90 -89 122 -84 58 -151 80 -252 84 -64 2 -110 -2 -139 -11z m265 -30 c40
-14 143 -87 143 -102 0 -6 7 -17 15 -24 8 -7 15 -17 15 -22 0 -6 -21 11 -47
36 -25 25 -52 46 -58 46 -7 0 -22 9 -35 20 -13 11 -30 20 -39 21 -9 0 -38 11
-66 23 l-50 24 45 -6 c25 -3 59 -10 77 -16z m53 -76 c0 -5 -2 -10 -4 -10 -3 0
-8 5 -11 10 -3 6 -1 10 4 10 6 0 11 -4 11 -10z m-112 -6 c17 -4 47 -22 67 -41
39 -38 47 -60 16 -43 -29 15 -32 13 -26 -17 3 -16 2 -22 -1 -15 -3 6 -10 9
-15 6 -6 -4 -6 -10 -1 -17 18 -22 32 -89 22 -108 -15 -27 -75 -42 -147 -36
-51 4 -74 11 -106 35 -51 36 -56 60 -22 100 14 17 22 33 17 36 -12 7 -3 56 10
56 6 0 8 -13 4 -31 -6 -29 -4 -31 17 -24 12 4 49 9 82 10 59 3 60 4 57 32 -2
15 -12 36 -24 46 -20 17 -20 17 0 17 11 0 33 -3 50 -6z m-298 -54 c0 -5 -4
-10 -10 -10 -5 0 -10 5 -10 10 0 6 5 10 10 10 6 0 10 -4 10 -10z m580 -143 c0
-36 -18 -70 -32 -61 -8 5 -9 1 -5 -10 4 -10 1 -19 -8 -22 -8 -4 -15 -12 -15
-20 0 -8 -4 -14 -10 -14 -16 0 -12 17 14 55 14 20 28 57 32 82 7 48 24 42 24
-10z m-462 -83 c30 -13 65 -24 78 -24 13 0 24 -5 24 -11 0 -7 -20 -10 -55 -7
-30 1 -55 0 -55 -4 0 -5 5 -8 12 -8 6 0 9 -2 7 -5 -3 -2 -22 0 -43 6 -31 9
-35 13 -25 25 10 12 6 20 -19 46 -18 17 -32 40 -32 52 0 18 3 17 26 -12 15
-19 51 -44 82 -58z m372 6 c0 -5 -4 -10 -9 -10 -5 0 -17 -3 -25 -6 -12 -5 -15
-2 -10 10 7 17 44 22 44 6z m-315 -80 c3 -5 1 -10 -4 -10 -6 0 -11 5 -11 10 0
6 2 10 4 10 3 0 8 -4 11 -10z m330 -10 c3 -5 1 -10 -4 -10 -6 0 -11 5 -11 10
0 6 2 10 4 10 3 0 8 -4 11 -10z"/>
<path d="M4190 864 c0 -5 7 -18 15 -28 8 -11 15 -16 15 -10 0 5 -7 18 -15 28
-8 11 -15 16 -15 10z"/>
<path d="M2700 846 c0 -9 5 -16 10 -16 6 0 10 4 10 9 0 6 -4 13 -10 16 -5 3
-10 -1 -10 -9z"/>
<path d="M2780 849 c0 -5 5 -7 10 -4 6 3 10 8 10 11 0 2 -4 4 -10 4 -5 0 -10
-5 -10 -11z"/>
<path d="M3318 853 c-9 -2 -19 -11 -22 -19 -4 -11 -2 -12 13 -5 10 6 28 8 41
6 18 -3 20 -2 10 10 -7 8 -15 14 -19 14 -3 -1 -13 -3 -23 -6z"/>
<path d="M4235 830 c-3 -5 -2 -10 4 -10 5 0 13 5 16 10 3 6 2 10 -4 10 -5 0
-13 -4 -16 -10z"/>
<path d="M4106 817 c12 -33 84 -46 84 -15 0 7 -4 7 -13 0 -9 -8 -19 -5 -37 8
-29 23 -41 25 -34 7z"/>
<path d="M4553 813 c-39 -8 -115 -103 -82 -103 5 0 9 5 9 10 0 6 6 10 14 10 8
0 16 5 18 10 2 7 15 6 35 -2 29 -11 35 -10 50 6 17 18 17 19 1 12 -50 -18 -54
-18 -33 -2 11 8 25 20 32 26 17 14 97 -5 150 -36 115 -67 180 -202 139 -285
-20 -39 -15 -48 12 -19 67 72 9 243 -111 321 -83 54 -148 69 -234 52z"/>
<path d="M4310 803 c0 -5 -20 -9 -44 -9 -28 -1 -56 -9 -75 -23 -34 -25 -41
-46 -12 -36 12 3 29 -3 49 -19 27 -23 38 -42 56 -100 4 -10 8 -17 11 -14 8 8
-17 82 -37 111 -11 16 -19 30 -17 32 13 12 82 45 94 45 8 0 15 5 15 10 0 6 -9
10 -20 10 -11 0 -20 -3 -20 -7z"/>
<path d="M3945 787 c-88 -36 -139 -95 -151 -174 -6 -40 10 -132 22 -121 2 2 0
18 -5 35 -12 42 1 105 32 152 28 43 100 91 142 95 14 1 26 7 28 12 3 14 -34
14 -68 1z"/>
<path d="M2228 765 c-41 -28 -75 -42 -115 -50 -52 -9 -102 -103 -89 -168 15
-73 107 -167 157 -159 11 2 18 -2 17 -8 -3 -12 91 -51 122 -52 42 -1 105 14
130 32 15 11 35 20 43 20 8 0 37 17 65 37 59 44 78 92 69 173 -6 46 -40 110
-59 110 -9 0 -127 53 -170 76 -44 23 -127 18 -170 -11z m157 -56 c58 -15 69
-30 85 -117 15 -82 30 -79 30 7 0 62 16 60 25 -4 4 -31 0 -49 -17 -79 -26 -45
-70 -81 -89 -73 -9 3 -3 9 15 16 46 18 23 24 -28 7 -70 -24 -164 -6 -210 39
-20 20 -20 65 -2 110 17 41 2 49 -29 15 -13 -15 -16 -28 -10 -57 11 -58 35
-91 85 -115 30 -15 39 -24 28 -26 -29 -6 -94 38 -117 78 -30 53 -28 110 5 149
14 17 32 31 40 31 8 0 14 4 14 9 0 20 112 26 175 10z m-50 -359 c-3 -5 -14
-10 -23 -10 -15 0 -15 2 -2 10 20 13 33 13 25 0z"/>
<path d="M2290 690 c-8 -5 -11 -12 -8 -15 10 -10 89 5 82 16 -7 12 -55 11 -74
-1z"/>
<path d="M2313 644 c0 -16 13 -19 21 -5 3 5 0 11 -7 14 -8 3 -14 -1 -14 -9z"/>
<path d="M3280 780 c0 -5 5 -10 10 -10 6 0 10 5 10 10 0 6 -4 10 -10 10 -5 0
-10 -4 -10 -10z"/>
<path d="M74 733 c-10 -38 13 -139 44 -197 51 -94 164 -190 238 -202 47 -7 71
11 38 29 -64 33 -224 235 -277 350 -25 54 -34 58 -43 20z"/>
<path d="M4050 750 c0 -12 48 -32 64 -27 5 2 -5 11 -23 20 -40 20 -41 20 -41
7z"/>
<path d="M2680 736 c0 -8 5 -18 10 -21 6 -3 10 3 10 14 0 12 -4 21 -10 21 -5
0 -10 -6 -10 -14z"/>
<path d="M3622 730 c0 -14 2 -19 5 -12 2 6 2 18 0 25 -3 6 -5 1 -5 -13z"/>
<path d="M4351 718 c-7 -18 -8 -52 -5 -81 5 -33 3 -48 -3 -44 -7 4 -7 -9 0
-41 12 -60 12 -70 4 -107 l-7 -30 24 30 c14 16 27 27 29 25 12 -13 31 -56 29
-64 -2 -4 4 -19 13 -33 9 -14 14 -31 11 -39 -3 -8 1 -14 9 -14 8 0 15 7 15 15
0 19 19 19 26 0 4 -8 16 -15 28 -15 18 0 15 6 -21 39 -46 40 -48 61 -4 33 18
-12 11 0 -22 38 -76 85 -109 160 -111 247 0 40 -2 73 -3 73 0 0 -6 -14 -12
-32z"/>
<path d="M3572 717 c4 -21 -1 -25 -39 -35 -24 -7 -71 -12 -104 -12 -57 0 -60
-1 -57 -22 6 -42 143 -60 186 -25 24 19 44 69 38 93 -8 31 -30 32 -24 1z m-17
-47 c-3 -5 -11 -10 -16 -10 -6 0 -7 5 -4 10 3 6 11 10 16 10 6 0 7 -4 4 -10z"/>
<path d="M3272 721 c-10 -6 -8 -10 9 -14 26 -7 34 -3 24 12 -7 13 -15 14 -33
2z"/>
<path d="M4586 701 c-4 -7 -5 -15 -2 -18 9 -9 19 4 14 18 -4 11 -6 11 -12 0z"/>
<path d="M4031 684 c0 -11 3 -14 6 -6 3 7 2 16 -1 19 -3 4 -6 -2 -5 -13z"/>
<path d="M4620 677 c-20 -8 -22 -11 -8 -14 20 -5 55 12 42 19 -5 3 -20 1 -34
-5z"/>
<path d="M3236 661 c-4 -7 -5 -15 -2 -18 9 -9 19 4 14 18 -4 11 -6 11 -12 0z"/>
<path d="M1265 649 c-44 -4 -100 -14 -125 -23 -52 -19 -100 -62 -100 -88 0
-19 15 -24 25 -8 12 19 53 11 60 -11 5 -15 10 -18 18 -10 12 12 47 15 47 5 0
-15 -49 -63 -55 -54 -13 21 -21 0 -18 -47 4 -45 17 -66 38 -60 6 2 10 9 10 15
0 18 18 17 30 -2 7 -11 6 -22 -2 -35 -11 -17 -9 -20 18 -26 17 -4 31 -5 33 -3
1 1 7 16 14 31 8 18 18 27 29 25 21 -4 34 -48 19 -67 -9 -12 -5 -13 22 -9 18
2 35 1 38 -4 10 -16 22 -8 27 20 4 15 11 34 16 42 16 24 46 -1 46 -39 0 -22 4
-31 17 -31 9 0 18 6 21 13 4 9 7 9 18 -1 22 -20 40 -15 34 11 -8 31 29 66 53
51 24 -16 27 -45 6 -62 -18 -14 -18 -14 -1 -8 10 3 36 9 57 12 36 6 39 9 34
33 -5 30 9 57 25 47 6 -4 9 -12 6 -17 -4 -5 -1 -9 5 -9 6 0 20 20 31 44 16 37
17 49 8 70 -7 14 -18 26 -26 26 -7 0 -13 5 -13 10 0 7 13 8 34 5 20 -4 36 -2
40 4 4 6 2 11 -3 11 -6 0 -11 7 -11 15 0 19 24 19 39 1 8 -10 9 -16 1 -21 -17
-11 -11 -27 9 -20 21 6 49 -19 31 -30 -5 -3 -10 -13 -10 -21 0 -8 4 -13 10 -9
5 3 5 -7 -1 -25 -11 -32 -24 -38 -32 -17 -3 6 -6 1 -6 -11 -1 -15 6 -26 18
-29 13 -3 17 -11 13 -25 -4 -18 -3 -19 16 -9 12 6 26 20 32 31 14 26 11 211
-3 231 -16 21 -71 47 -138 64 -75 20 -100 19 -106 -5 -4 -14 -11 -19 -23 -15
-34 11 -46 -4 -49 -56 l-2 -51 33 7 c18 3 41 9 51 11 9 3 17 0 17 -7 0 -7 -3
-10 -6 -6 -4 3 -20 -1 -36 -9 -16 -9 -51 -17 -76 -20 -25 -2 -51 -9 -56 -14
-7 -7 -6 -10 2 -10 7 0 17 -12 23 -26 12 -33 -10 -62 -44 -60 -18 1 -22 7 -21
31 0 17 4 37 8 46 9 20 -18 29 -90 29 -37 0 -54 4 -58 15 -3 8 -12 12 -21 9
-8 -3 -15 -2 -15 4 0 10 81 9 97 -1 4 -3 19 -3 33 0 21 4 25 10 25 41 0 36 -1
37 -40 38 -55 1 -63 4 -40 14 16 7 12 9 -18 9 -24 1 -52 -8 -78 -25 -24 -15
-39 -20 -37 -12 8 25 71 48 135 48 62 0 94 15 51 24 -54 11 -87 12 -163 5z
m470 -49 c11 -5 16 -9 10 -9 -5 -1 -4 -5 4 -10 7 -5 10 -14 7 -20 -5 -7 -14
-4 -28 9 -12 11 -27 20 -34 20 -7 0 -16 5 -19 10 -7 12 32 12 60 0z m155 -36
c0 -8 -4 -14 -10 -14 -5 0 -10 9 -10 21 0 11 5 17 10 14 6 -3 10 -13 10 -21z
m-70 -5 c0 -11 -27 -12 -34 0 -3 4 -3 11 0 14 8 8 34 -3 34 -14z m-640 -9 c0
-5 -9 -10 -20 -10 -11 0 -20 5 -20 10 0 6 9 10 20 10 11 0 20 -4 20 -10z m95
-20 c3 -5 2 -10 -4 -10 -5 0 -13 5 -16 10 -3 6 -2 10 4 10 5 0 13 -4 16 -10z
m-15 -49 c0 -6 -5 -13 -11 -16 -6 -4 -8 -13 -5 -21 14 -35 -20 -58 -43 -30
-19 23 13 75 47 76 6 0 12 -4 12 -9z m121 -59 c-5 -31 -11 -38 -32 -40 -32 -4
-44 19 -26 51 16 29 26 35 46 30 14 -4 16 -12 12 -41z m297 36 c16 -16 15 -39
-4 -63 -11 -15 -18 -17 -32 -9 -16 10 -25 59 -15 77 7 11 38 8 51 -5z m-179
-145 c1 -22 -16 -14 -22 9 -8 28 4 47 14 22 4 -10 8 -25 8 -31z"/>
<path d="M1512 641 c-26 -16 8 -20 103 -12 30 3 30 3 5 11 -34 11 -92 12 -108
1z"/>
<path d="M2690 636 c0 -8 5 -18 10 -21 6 -3 10 1 10 9 0 8 -4 18 -10 21 -5 3
-10 -1 -10 -9z"/>
<path d="M3139 610 c-7 -4 -43 -10 -78 -14 -74 -7 -171 -47 -171 -70 0 -20 -5
-20 67 4 33 11 86 22 119 26 32 4 68 13 79 20 11 8 35 14 54 14 26 0 32 3 24
11 -14 14 -74 20 -94 9z"/>
<path d="M3692 539 c4 -64 10 -83 38 -125 41 -62 77 -91 148 -120 64 -27 156
-31 244 -13 97 21 97 21 21 100 -37 38 -69 65 -71 59 -2 -6 2 -17 9 -26 10
-12 9 -17 -4 -27 -13 -10 -10 -16 23 -42 22 -16 39 -33 40 -37 0 -13 -52 -23
-115 -23 -174 1 -316 116 -322 263 -1 30 -5 57 -9 61 -3 3 -4 -28 -2 -70z"/>
<path d="M2758 593 c7 -3 16 -2 19 1 4 3 -2 6 -13 5 -11 0 -14 -3 -6 -6z"/>
<path d="M4038 595 c-8 -8 2 -45 13 -45 10 0 10 8 0 33 -3 10 -9 15 -13 12z"/>
<path d="M1527 584 c-4 -4 -7 -22 -7 -41 0 -40 29 -48 32 -8 0 14 1 30 2 37 1
13 -17 21 -27 12z"/>
<path d="M2725 561 c-3 -5 -1 -12 5 -16 5 -3 10 1 10 9 0 18 -6 21 -15 7z"/>
<path d="M3160 545 c0 -8 2 -15 4 -15 2 0 6 7 10 15 3 8 1 15 -4 15 -6 0 -10
-7 -10 -15z"/>
<path d="M2800 520 c0 -12 8 -12 35 0 18 8 17 9 -7 9 -16 1 -28 -3 -28 -9z"/>
<path d="M3110 515 c27 -14 36 -13 25 4 -3 6 -16 11 -28 11 -21 -1 -21 -1 3
-15z"/>
<path d="M4600 521 c0 -7 16 -19 35 -27 42 -17 45 -17 45 0 0 9 -7 12 -20 9
-12 -3 -29 2 -40 12 -13 11 -20 14 -20 6z"/>
<path d="M4984 494 c4 -27 1 -47 -10 -62 -8 -12 -13 -26 -10 -31 8 -12 -21
-34 -34 -26 -5 3 -10 2 -10 -4 0 -5 6 -11 13 -14 6 -2 -7 -13 -31 -25 -24 -11
-49 -19 -57 -16 -7 3 -16 1 -20 -5 -3 -6 -32 -11 -63 -12 -49 0 -53 -2 -32
-10 79 -33 205 11 247 86 24 43 31 119 12 145 -8 11 -9 5 -5 -26z"/>
<path d="M4040 488 c0 -9 5 -20 10 -23 13 -8 13 5 0 25 -8 13 -10 13 -10 -2z"/>
<path d="M4080 492 c0 -4 7 -17 15 -29 15 -22 16 -22 50 -5 19 9 35 23 35 30
0 16 -10 15 -34 -3 -25 -19 -46 -19 -46 0 0 8 -4 15 -10 15 -5 0 -10 -3 -10
-8z"/>
<path d="M2785 480 c-3 -5 -1 -10 4 -10 6 0 11 5 11 10 0 6 -2 10 -4 10 -3 0
-8 -4 -11 -10z"/>
<path d="M2910 480 c20 -13 33 -13 25 0 -3 6 -14 10 -23 10 -15 0 -15 -2 -2
-10z"/>
<path d="M3014 475 c21 -16 32 -13 21 4 -3 6 -14 11 -23 11 -15 -1 -15 -2 2
-15z"/>
<path d="M2784 428 c-8 -26 12 -42 85 -71 59 -23 198 -57 234 -57 27 0 27 1
12 24 -19 29 -68 51 -92 41 -17 -7 -16 -8 2 -15 49 -21 -20 -9 -98 17 -55 17
-91 36 -109 55 -26 28 -27 28 -34 6z"/>
<path d="M2960 440 c0 -5 5 -10 10 -10 6 0 10 5 10 10 0 6 -4 10 -10 10 -5 0
-10 -4 -10 -10z"/>
<path d="M4637 435 c3 -8 9 -12 14 -9 12 7 11 11 -5 17 -10 4 -13 1 -9 -8z"/>
<path d="M4225 409 c-9 -17 -14 -33 -11 -36 7 -7 45 38 46 55 0 23 -19 12 -35
-19z"/>
<path d="M4170 400 c0 -5 5 -10 10 -10 6 0 10 5 10 10 0 6 -4 10 -10 10 -5 0
-10 -4 -10 -10z"/>
<path d="M4334 365 c-8 -44 2 -57 16 -21 13 34 13 56 0 56 -5 0 -12 -16 -16
-35z"/>
<path d="M4395 365 c7 -40 20 -63 30 -53 6 6 -14 69 -27 83 -6 6 -7 -5 -3 -30z"/>
<path d="M4875 390 c-3 -5 1 -10 9 -10 9 0 16 5 16 10 0 6 -4 10 -9 10 -6 0
-13 -4 -16 -10z"/>
<path d="M2990 380 c0 -5 5 -10 11 -10 5 0 7 5 4 10 -3 6 -8 10 -11 10 -2 0
-4 -4 -4 -10z"/>
<path d="M4544 362 c10 -17 74 -48 116 -57 47 -10 32 3 -37 32 -32 13 -64 27
-72 30 -9 4 -12 2 -7 -5z"/>
<path d="M4280 350 c0 -5 5 -10 10 -10 6 0 10 5 10 10 0 6 -4 10 -10 10 -5 0
-10 -4 -10 -10z"/>
<path d="M3124 339 c-3 -5 17 -9 45 -9 27 0 53 4 56 10 4 6 -14 9 -45 9 -28
-1 -53 -6 -56 -10z"/>
<path d="M1726 305 c-3 -9 0 -15 9 -15 8 0 15 7 15 15 0 8 -4 15 -9 15 -5 0
-11 -7 -15 -15z"/>
</g>
</svg>
